<svg width="24" height="24" viewBox="0 0 24 24" fill="none" xmlns="http://www.w3.org/2000/svg">
<path d="M10 2H14" stroke="#393946" stroke-width="1.5" stroke-linecap="round" stroke-linejoin="round"/>
<path d="M17.6569 7.34314C20.7811 10.4673 20.7811 15.5327 17.6569 18.6568C14.5327 21.781 9.46739 21.781 6.3432 18.6568C3.21901 15.5327 3.21901 10.4673 6.3432 7.34314C9.46739 4.21895 14.5327 4.21895 17.6569 7.34314" stroke="#393946" stroke-width="1.5" stroke-linecap="round" stroke-linejoin="round"/>
<path d="M11.998 12.5C11.722 12.5 11.498 12.724 11.5 13C11.5 13.276 11.724 13.5 12 13.5C12.276 13.5 12.5 13.276 12.5 13C12.5 12.724 12.276 12.5 11.998 12.5" stroke="#393946" stroke-width="1.5" stroke-linecap="round" stroke-linejoin="round"/>
<path d="M15.536 16.5362C14.631 17.4402 13.381 18.0002 12 18.0002C9.239 18.0002 7 15.7612 7 13.0002C7 12.6892 7.036 12.3882 7.095 12.0952" stroke="#393946" stroke-width="1.5" stroke-linecap="round" stroke-linejoin="round"/>
<path d="M8.46001 9.45996L11.65 12.65" stroke="#393946" stroke-width="1.5" stroke-linecap="round" stroke-linejoin="round"/>
<path d="M20 5L17.66 7.34" stroke="#393946" stroke-width="1.5" stroke-linecap="round" stroke-linejoin="round"/>
<path d="M19 4L21 6" stroke="#393946" stroke-width="1.5" stroke-linecap="round" stroke-linejoin="round"/>
</svg>
