<svg id="svg" version="1.1" xmlns="http://www.w3.org/2000/svg" xmlns:xlink="http://www.w3.org/1999/xlink" width="400" height="400" viewBox="0, 0, 400,400"><g id="svgg"><path id="path0" d="M0.006 200.000 L 0.025 400.000 200.012 400.000 L 400.000 400.000 400.000 200.000 L 400.000 0.000 199.994 0.000 L -0.012 0.000 0.006 200.000 M214.258 66.215 C 259.652 72.115,295.554 99.529,313.130 141.712 C 325.557 171.538,325.674 208.791,313.434 237.944 C 308.558 249.557,303.360 258.312,295.375 268.359 C 278.997 288.969,249.916 307.303,228.060 310.798 C 227.171 310.940,226.678 311.199,226.829 311.443 C 226.985 311.695,226.833 311.756,226.434 311.603 C 226.078 311.467,223.896 311.705,221.585 312.132 C 209.727 314.326,189.452 314.983,179.883 313.483 C 177.305 313.079,174.492 312.737,173.633 312.722 C 172.773 312.707,171.982 312.597,171.875 312.477 C 171.768 312.358,169.746 311.854,167.383 311.359 C 130.670 303.662,100.308 279.664,82.341 244.141 C 63.966 207.810,65.899 161.793,87.294 126.235 C 114.428 81.138,160.718 59.256,214.258 66.215 M178.027 83.103 C 179.800 83.176,182.700 83.176,184.473 83.103 C 186.245 83.031,184.795 82.972,181.250 82.972 C 177.705 82.972,176.255 83.031,178.027 83.103 M219.447 83.101 C 220.582 83.180,222.340 83.179,223.353 83.099 C 224.366 83.019,223.438 82.954,221.289 82.955 C 219.141 82.956,218.312 83.022,219.447 83.101 M185.847 94.424 C 186.549 94.511,187.604 94.509,188.191 94.420 C 188.778 94.331,188.203 94.259,186.914 94.262 C 185.625 94.264,185.145 94.337,185.847 94.424 M203.824 94.430 C 205.175 94.507,207.284 94.506,208.511 94.429 C 209.738 94.352,208.633 94.289,206.055 94.290 C 203.477 94.291,202.473 94.354,203.824 94.430 M183.709 99.900 C 185.384 99.973,188.021 99.973,189.569 99.899 C 191.116 99.825,189.746 99.765,186.523 99.766 C 183.301 99.766,182.034 99.827,183.709 99.900 M259.129 110.156 C 259.129 112.412,259.193 113.335,259.272 112.207 C 259.351 111.079,259.351 109.233,259.272 108.105 C 259.193 106.978,259.129 107.900,259.129 110.156 M182.138 110.156 C 182.138 111.123,182.214 111.519,182.307 111.035 C 182.400 110.552,182.400 109.761,182.307 109.277 C 182.214 108.794,182.138 109.189,182.138 110.156 M131.386 112.500 C 131.386 114.326,131.454 115.073,131.536 114.160 C 131.618 113.247,131.618 111.753,131.536 110.840 C 131.454 109.927,131.386 110.674,131.386 112.500 M139.153 111.328 C 139.153 112.080,139.234 112.388,139.332 112.012 C 139.430 111.636,139.430 111.021,139.332 110.645 C 139.234 110.269,139.153 110.576,139.153 111.328 M251.315 121.289 C 251.316 123.438,251.381 124.267,251.460 123.131 C 251.539 121.996,251.539 120.238,251.458 119.225 C 251.378 118.212,251.314 119.141,251.315 121.289 M131.386 123.438 C 131.386 125.264,131.454 126.011,131.536 125.098 C 131.618 124.185,131.618 122.690,131.536 121.777 C 131.454 120.864,131.386 121.611,131.386 123.438 M238.770 121.363 C 239.146 121.461,239.761 121.461,240.137 121.363 C 240.513 121.265,240.205 121.184,239.453 121.184 C 238.701 121.184,238.394 121.265,238.770 121.363 M139.169 125.000 C 139.169 125.967,139.245 126.362,139.338 125.879 C 139.431 125.396,139.431 124.604,139.338 124.121 C 139.245 123.638,139.169 124.033,139.169 125.000 M155.753 131.532 C 156.446 131.618,157.677 131.620,158.487 131.535 C 159.298 131.451,158.730 131.380,157.227 131.378 C 155.723 131.376,155.060 131.446,155.753 131.532 M139.207 138.281 C 139.207 140.537,139.272 141.460,139.350 140.332 C 139.429 139.204,139.429 137.358,139.350 136.230 C 139.272 135.103,139.207 136.025,139.207 138.281 M166.360 137.612 C 166.530 137.780,168.587 137.867,170.932 137.805 L 175.195 137.691 170.623 137.498 C 168.109 137.392,166.190 137.443,166.360 137.612 M217.676 137.790 C 219.341 137.864,222.065 137.864,223.730 137.790 C 225.396 137.717,224.033 137.657,220.703 137.657 C 217.373 137.657,216.011 137.717,217.676 137.790 M153.619 138.562 C 154.212 138.651,155.091 138.649,155.572 138.556 C 156.052 138.464,155.566 138.390,154.492 138.393 C 153.418 138.396,153.025 138.472,153.619 138.562 M131.375 145.313 C 131.375 146.709,131.446 147.280,131.533 146.582 C 131.619 145.884,131.619 144.741,131.533 144.043 C 131.446 143.345,131.375 143.916,131.375 145.313 M172.852 143.997 C 175.649 144.287,178.819 144.313,178.652 144.043 C 178.551 143.882,176.942 143.778,175.075 143.813 C 173.207 143.847,172.207 143.930,172.852 143.997 M188.184 144.026 C 188.667 144.119,189.458 144.119,189.941 144.026 C 190.425 143.933,190.029 143.856,189.063 143.856 C 188.096 143.856,187.700 143.933,188.184 144.026 M203.813 144.026 C 204.299 144.120,205.002 144.116,205.376 144.018 C 205.749 143.921,205.352 143.844,204.492 143.849 C 203.633 143.853,203.327 143.933,203.813 144.026 M191.949 149.805 C 191.949 152.598,192.012 153.689,192.087 152.230 C 192.162 150.771,192.162 148.486,192.086 147.152 C 192.010 145.818,191.948 147.012,191.949 149.805 M178.662 149.414 C 178.663 151.777,178.727 152.694,178.805 151.451 C 178.882 150.207,178.882 148.274,178.803 147.154 C 178.724 146.034,178.661 147.051,178.662 149.414 M184.900 151.758 C 184.901 153.477,184.970 154.131,185.052 153.212 C 185.135 152.294,185.134 150.887,185.050 150.087 C 184.966 149.287,184.898 150.039,184.900 151.758 M139.239 165.625 C 139.239 173.467,139.291 176.675,139.355 172.754 C 139.419 168.833,139.419 162.417,139.355 158.496 C 139.291 154.575,139.239 157.783,139.239 165.625 M172.949 157.710 C 174.077 157.789,175.923 157.789,177.051 157.710 C 178.179 157.631,177.256 157.566,175.000 157.566 C 172.744 157.566,171.821 157.631,172.949 157.710 M199.909 157.705 C 200.611 157.792,201.666 157.790,202.253 157.701 C 202.840 157.612,202.266 157.541,200.977 157.543 C 199.688 157.545,199.207 157.618,199.909 157.705 M214.947 163.952 C 215.541 164.042,216.419 164.040,216.900 163.947 C 217.380 163.854,216.895 163.781,215.820 163.784 C 214.746 163.787,214.353 163.862,214.947 163.952 M179.031 166.406 C 179.031 167.803,179.102 168.374,179.189 167.676 C 179.275 166.978,179.275 165.835,179.189 165.137 C 179.102 164.438,179.031 165.010,179.031 166.406 M129.594 164.729 C 130.080 164.823,130.783 164.819,131.157 164.722 C 131.530 164.624,131.133 164.547,130.273 164.552 C 129.414 164.556,129.108 164.636,129.594 164.729 M211.830 166.992 C 211.833 168.066,211.909 168.459,211.999 167.866 C 212.089 167.272,212.086 166.393,211.994 165.913 C 211.901 165.432,211.828 165.918,211.830 166.992 M172.954 173.714 C 173.440 173.807,174.143 173.804,174.516 173.706 C 174.890 173.608,174.492 173.532,173.633 173.536 C 172.773 173.540,172.468 173.620,172.954 173.714 M187.003 173.719 C 187.696 173.806,188.927 173.807,189.737 173.723 C 190.548 173.638,189.980 173.567,188.477 173.566 C 186.973 173.564,186.310 173.633,187.003 173.719 M250.893 180.664 C 250.896 181.738,250.972 182.131,251.062 181.538 C 251.151 180.944,251.149 180.065,251.056 179.584 C 250.964 179.104,250.890 179.590,250.893 180.664 M177.246 180.354 C 177.729 180.447,178.521 180.447,179.004 180.354 C 179.487 180.261,179.092 180.185,178.125 180.185 C 177.158 180.185,176.763 180.261,177.246 180.354 M212.003 180.360 C 212.696 180.446,213.927 180.448,214.737 180.363 C 215.548 180.279,214.980 180.208,213.477 180.206 C 211.973 180.205,211.310 180.274,212.003 180.360 M186.612 187.782 C 187.306 187.868,188.536 187.870,189.347 187.785 C 190.157 187.701,189.590 187.630,188.086 187.628 C 186.582 187.626,185.919 187.696,186.612 187.782 M139.207 199.219 C 139.207 201.475,139.272 202.397,139.350 201.270 C 139.429 200.142,139.429 198.296,139.350 197.168 C 139.272 196.040,139.207 196.963,139.207 199.219 M131.386 203.125 C 131.386 204.951,131.454 205.698,131.536 204.785 C 131.618 203.872,131.618 202.378,131.536 201.465 C 131.454 200.552,131.386 201.299,131.386 203.125 M139.242 225.000 C 139.242 234.561,139.293 238.472,139.355 233.691 C 139.417 228.911,139.417 221.089,139.355 216.309 C 139.293 211.528,139.242 215.439,139.242 225.000 M245.794 212.500 C 245.794 213.252,245.874 213.560,245.972 213.184 C 246.071 212.808,246.071 212.192,245.972 211.816 C 245.874 211.440,245.794 211.748,245.794 212.500 M255.500 213.551 C 255.483 214.452,255.608 215.274,255.778 215.379 C 255.948 215.484,256.023 214.923,255.945 214.133 C 255.731 211.971,255.534 211.714,255.500 213.551 M244.231 213.672 C 244.231 214.424,244.312 214.731,244.410 214.355 C 244.508 213.979,244.508 213.364,244.410 212.988 C 244.312 212.612,244.231 212.920,244.231 213.672 M236.091 228.125 C 236.091 231.025,236.152 232.212,236.227 230.762 C 236.302 229.312,236.302 226.938,236.227 225.488 C 236.152 224.038,236.091 225.225,236.091 228.125 M268.086 230.469 C 268.086 231.650,268.159 232.134,268.249 231.543 C 268.338 230.952,268.338 229.985,268.249 229.395 C 268.159 228.804,268.086 229.287,268.086 230.469 M231.010 235.156 C 231.010 237.842,231.072 238.940,231.149 237.598 C 231.225 236.255,231.225 234.058,231.149 232.715 C 231.072 231.372,231.010 232.471,231.010 235.156 M131.414 243.555 C 131.414 247.852,131.471 249.663,131.541 247.579 C 131.611 245.496,131.611 241.980,131.542 239.767 C 131.472 237.553,131.414 239.258,131.414 243.555 M268.059 237.109 C 268.059 237.861,268.140 238.169,268.238 237.793 C 268.336 237.417,268.336 236.802,268.238 236.426 C 268.140 236.050,268.059 236.357,268.059 237.109 M236.062 238.086 C 236.136 238.811,236.437 238.869,240.239 238.887 L 244.336 238.907 240.358 238.776 C 237.006 238.666,236.349 238.540,236.181 237.975 C 236.033 237.475,236.003 237.503,236.062 238.086 M251.081 238.955 C 251.783 239.042,252.838 239.040,253.425 238.951 C 254.012 238.862,253.437 238.791,252.148 238.793 C 250.859 238.795,250.379 238.868,251.081 238.955 M149.131 245.990 C 150.050 246.072,151.456 246.071,152.256 245.987 C 153.056 245.903,152.305 245.836,150.586 245.837 C 148.867 245.838,148.213 245.907,149.131 245.990 M170.801 245.995 C 174.185 246.060,179.722 246.060,183.105 245.995 C 186.489 245.930,183.721 245.877,176.953 245.877 C 170.186 245.877,167.417 245.930,170.801 245.995 M204.600 245.990 C 205.519 246.072,206.925 246.071,207.725 245.987 C 208.525 245.903,207.773 245.836,206.055 245.837 C 204.336 245.838,203.681 245.907,204.600 245.990 M270.682 251.074 L 269.336 252.539 270.801 251.193 C 272.164 249.940,272.445 249.609,272.147 249.609 C 272.082 249.609,271.422 250.269,270.682 251.074 M195.020 261.988 C 195.396 262.086,196.011 262.086,196.387 261.988 C 196.763 261.890,196.455 261.809,195.703 261.809 C 194.951 261.809,194.644 261.890,195.020 261.988 M188.372 269.531 C 188.372 270.283,188.452 270.591,188.551 270.215 C 188.649 269.839,188.649 269.224,188.551 268.848 C 188.452 268.472,188.372 268.779,188.372 269.531 M250.952 284.863 L 249.805 286.133 251.074 284.986 C 252.258 283.916,252.523 283.594,252.222 283.594 C 252.154 283.594,251.583 284.165,250.952 284.863 M160.449 291.308 C 163.726 291.373,169.087 291.373,172.363 291.308 C 175.640 291.242,172.959 291.189,166.406 291.189 C 159.854 291.189,157.173 291.242,160.449 291.308 M206.543 291.308 C 209.390 291.374,214.048 291.374,216.895 291.308 C 219.741 291.241,217.412 291.186,211.719 291.186 C 206.025 291.186,203.696 291.241,206.543 291.308 " stroke="none" fill="#8dabc0" fill-rule="evenodd"></path><path id="path1" d="M154.883 83.619 C 144.012 84.616,136.265 90.977,132.789 101.758 C 131.987 104.248,131.887 105.503,131.677 115.808 L 131.445 127.124 129.668 127.014 C 126.410 126.812,125.848 127.848,125.704 134.310 C 125.540 141.727,126.264 143.177,129.991 142.887 L 131.445 142.773 131.561 145.410 L 131.676 148.047 129.875 148.047 C 125.952 148.047,125.304 149.306,125.562 156.436 C 125.806 163.189,126.567 164.453,130.389 164.453 L 131.836 164.453 131.836 216.894 C 131.836 267.040,131.868 269.456,132.572 272.070 C 134.971 280.980,139.975 286.545,148.305 289.568 L 151.758 290.820 194.141 290.934 C 223.421 291.012,237.308 290.915,239.063 290.621 C 249.871 288.809,258.594 278.504,258.594 267.549 C 258.594 264.454,258.512 264.010,257.976 264.216 C 257.636 264.346,256.977 264.456,256.511 264.459 C 255.907 264.463,255.812 264.559,256.178 264.791 C 257.116 265.386,245.659 264.989,242.969 264.334 C 233.137 261.939,225.026 257.317,220.118 251.314 C 219.088 250.054,218.124 249.058,217.977 249.099 C 217.829 249.141,217.708 248.960,217.708 248.697 C 217.708 248.433,217.391 247.735,217.004 247.143 L 216.300 246.069 177.779 246.107 L 139.258 246.146 139.161 230.006 C 139.107 221.130,139.020 189.782,138.965 160.345 L 138.867 106.823 141.113 106.823 L 143.359 106.823 143.363 110.736 C 143.372 119.274,148.607 123.207,155.902 120.155 C 157.328 119.558,159.377 117.206,158.508 117.163 C 158.233 117.149,158.447 116.953,158.984 116.728 C 159.555 116.488,159.759 116.241,159.476 116.135 C 159.155 116.014,159.107 115.732,159.333 115.301 C 159.716 114.571,160.119 111.692,160.229 108.887 L 160.302 107.031 162.517 107.031 L 164.732 107.031 165.006 111.004 C 165.514 118.387,168.364 121.565,173.958 120.988 C 179.735 120.392,182.031 117.145,182.031 109.574 L 182.031 106.755 184.082 106.943 C 186.657 107.180,186.402 106.767,186.750 111.265 C 187.329 118.740,189.805 121.415,195.784 121.027 C 202.217 120.610,203.555 118.424,204.291 107.129 C 204.294 107.075,205.240 107.031,206.392 107.031 L 208.488 107.031 208.736 108.844 C 208.873 109.840,208.986 111.554,208.988 112.652 C 208.998 117.740,212.127 120.898,217.159 120.898 C 223.226 120.898,225.328 118.603,225.922 111.328 L 226.305 106.641 228.582 106.641 L 230.859 106.641 230.859 110.559 C 230.859 117.471,233.715 121.061,239.232 121.085 C 244.296 121.108,246.945 117.955,247.254 111.536 L 247.461 107.227 249.609 106.961 C 252.374 106.618,252.253 106.308,251.920 112.891 C 251.763 116.006,251.551 133.848,251.449 152.539 L 251.264 186.523 254.050 186.555 C 255.582 186.572,257.215 186.789,257.677 187.037 C 258.950 187.719,259.101 185.171,258.822 167.667 C 258.559 151.252,258.485 151.891,260.723 151.350 C 263.352 150.714,263.594 149.873,263.741 140.884 C 263.887 131.941,263.775 131.641,260.308 131.641 L 258.593 131.641 258.691 117.871 C 258.787 104.389,258.770 104.040,257.875 101.172 C 255.221 92.671,249.205 86.712,240.625 84.088 C 238.234 83.356,162.276 82.941,154.883 83.619 M196.404 94.111 L 210.973 94.141 211.932 95.099 C 213.104 96.271,213.155 97.605,212.081 98.971 L 211.271 100.000 195.840 100.000 L 180.409 100.000 179.267 98.858 C 177.177 96.768,178.529 93.434,181.250 93.966 C 181.572 94.029,188.392 94.094,196.404 94.111 M146.977 132.410 C 145.367 133.911,145.368 136.012,146.979 137.513 C 147.721 138.205,148.376 138.281,153.553 138.281 L 159.303 138.281 159.964 142.090 C 160.328 144.185,161.213 149.063,161.930 152.930 C 162.647 156.797,163.516 162.070,163.862 164.648 C 164.208 167.227,164.912 171.885,165.428 175.000 C 165.944 178.115,166.620 182.575,166.930 184.910 C 167.348 188.049,167.710 189.424,168.320 190.183 C 170.389 192.761,170.464 192.934,169.824 193.662 C 165.729 198.322,167.343 205.743,173.198 209.174 C 180.872 213.671,190.124 204.410,186.949 195.411 L 186.397 193.848 194.030 193.980 C 202.874 194.132,202.146 193.868,201.556 196.709 C 200.117 203.642,205.222 210.156,212.093 210.156 C 214.118 210.156,214.942 209.402,217.331 205.361 C 218.502 203.379,220.091 201.152,220.863 200.412 C 222.527 198.815,222.579 198.151,221.262 195.321 L 220.266 193.182 221.465 192.196 C 222.888 191.026,222.966 190.269,221.777 189.160 C 220.401 187.875,220.212 187.864,196.489 187.778 L 174.033 187.695 173.553 184.961 C 173.290 183.457,172.984 181.743,172.875 181.152 L 172.676 180.078 195.928 180.078 C 224.630 180.078,222.330 180.904,224.200 169.922 C 225.767 160.715,227.398 152.145,228.546 147.070 C 230.042 140.462,229.999 139.287,228.234 138.425 C 227.852 138.238,213.762 137.998,196.923 137.891 L 166.306 137.695 165.671 135.588 C 164.595 132.016,164.172 131.857,155.344 131.716 C 148.203 131.602,147.810 131.634,146.977 132.410 M178.906 150.781 L 178.906 157.813 174.414 157.813 C 171.943 157.813,169.919 157.769,169.916 157.715 C 169.914 157.661,169.475 154.980,168.942 151.758 C 168.409 148.535,167.972 145.415,167.971 144.824 L 167.969 143.750 173.438 143.750 L 178.906 143.750 178.906 150.781 M192.188 150.781 L 192.188 157.813 188.477 157.813 L 184.766 157.813 184.766 150.781 L 184.766 143.750 188.477 143.750 L 192.188 143.750 192.188 150.781 M206.114 146.387 C 205.977 147.837,205.864 151.001,205.862 153.418 L 205.859 157.813 201.995 157.813 L 198.130 157.813 197.846 151.380 C 197.482 143.122,197.124 143.750,202.193 143.750 L 206.363 143.750 206.114 146.387 M222.408 145.485 C 222.076 146.459,221.337 149.588,220.766 152.437 L 219.727 157.617 215.918 157.729 L 212.109 157.841 212.112 150.893 L 212.114 143.945 217.563 143.829 L 223.012 143.713 222.408 145.485 M175.618 163.672 L 179.297 163.672 179.297 168.750 L 179.297 173.828 175.617 173.828 L 171.937 173.828 171.718 172.754 C 171.408 171.231,170.703 165.239,170.703 164.129 C 170.703 163.440,170.864 163.259,171.321 163.435 C 171.661 163.565,173.594 163.672,175.618 163.672 M205.986 168.138 C 205.895 174.233,206.195 173.828,201.770 173.828 L 198.047 173.828 198.043 170.215 C 198.040 168.228,197.930 165.949,197.799 165.151 L 197.559 163.701 201.416 163.577 C 203.538 163.509,205.449 163.476,205.664 163.503 C 205.904 163.534,206.028 165.323,205.986 168.138 M192.188 168.750 L 192.188 173.828 188.672 173.828 L 185.156 173.828 185.152 170.215 C 185.150 168.228,185.039 165.942,184.906 165.137 L 184.663 163.672 188.425 163.672 L 192.188 163.672 192.188 168.750 M218.901 163.990 C 219.009 164.166,218.777 165.616,218.384 167.213 C 217.992 168.810,217.518 170.908,217.331 171.875 L 216.991 173.633 214.355 173.748 L 211.719 173.864 211.719 168.768 L 211.719 163.672 215.211 163.672 C 217.132 163.672,218.793 163.815,218.901 163.990 M242.698 194.699 C 236.832 195.809,225.773 202.644,226.452 204.740 C 226.499 204.885,226.246 205.240,225.889 205.529 C 225.334 205.979,225.288 205.970,225.568 205.469 C 226.019 204.662,225.444 205.275,223.723 207.434 C 217.006 215.860,215.931 230.951,221.289 241.602 C 223.418 245.832,225.639 248.962,226.246 248.587 C 226.499 248.431,226.575 248.492,226.426 248.733 C 226.082 249.289,230.871 253.595,231.545 253.336 C 231.835 253.225,231.968 253.302,231.841 253.508 C 231.479 254.093,236.564 256.461,240.640 257.604 C 249.995 260.230,258.810 258.960,266.867 253.825 C 269.902 251.891,272.853 249.072,272.479 248.466 C 272.366 248.284,272.624 248.044,273.051 247.933 C 273.479 247.821,273.828 247.527,273.828 247.279 C 273.828 247.032,273.652 246.938,273.438 247.070 C 273.223 247.203,273.047 247.209,273.047 247.084 C 273.047 246.958,273.497 246.685,274.047 246.475 C 274.597 246.266,274.935 245.915,274.799 245.694 C 274.663 245.474,274.749 245.341,274.991 245.400 C 275.233 245.460,275.879 244.761,276.427 243.848 C 276.975 242.935,277.229 242.188,276.993 242.188 C 276.756 242.188,276.563 242.376,276.563 242.606 C 276.563 242.836,276.311 243.276,276.003 243.584 C 275.128 244.459,274.804 242.856,275.552 241.356 C 275.886 240.687,276.063 239.984,275.945 239.793 C 275.684 239.371,276.763 238.221,277.102 238.560 C 277.235 238.693,277.344 238.618,277.344 238.392 C 277.344 238.166,277.692 237.891,278.118 237.779 C 278.804 237.600,278.841 237.673,278.445 238.417 C 278.039 239.180,278.058 239.207,278.656 238.714 C 279.052 238.388,279.223 237.881,279.084 237.445 C 278.930 236.959,279.046 236.719,279.436 236.719 C 280.800 236.719,281.735 229.911,281.232 223.632 C 280.798 218.204,278.040 210.070,276.878 210.789 C 276.614 210.952,276.551 210.881,276.719 210.609 C 277.606 209.175,270.218 201.476,264.885 198.277 C 258.862 194.663,250.238 193.273,242.698 194.699 M179.970 195.692 C 181.985 196.921,182.216 200.289,180.416 202.204 C 179.288 203.406,176.718 203.472,175.276 202.338 C 171.169 199.107,175.504 192.970,179.970 195.692 M214.297 196.641 C 216.080 198.424,216.065 201.066,214.263 202.869 C 212.287 204.844,207.422 202.540,207.422 199.629 C 207.422 195.581,211.475 193.819,214.297 196.641 M243.913 210.784 C 244.369 210.959,244.531 211.563,244.531 213.082 C 244.531 215.542,244.394 215.612,239.551 215.620 L 236.328 215.625 236.328 227.148 L 236.328 238.672 249.553 238.672 L 262.778 238.672 263.027 236.035 C 263.345 232.663,263.355 221.130,263.041 218.124 L 262.801 215.820 260.795 215.940 C 259.692 216.007,258.086 215.911,257.227 215.728 L 255.664 215.395 255.664 213.264 L 255.664 211.133 260.938 211.031 C 265.973 210.933,266.263 210.970,267.355 211.851 L 268.500 212.773 268.399 226.974 C 268.259 246.593,270.376 244.690,249.066 244.350 C 228.824 244.026,230.700 245.874,230.945 226.496 C 231.161 209.419,230.403 210.793,239.714 210.615 C 241.684 210.578,243.574 210.654,243.913 210.784 M254.277 215.527 C 254.352 218.267,254.431 221.119,254.452 221.865 C 254.504 223.610,253.746 223.785,251.816 222.475 C 250.061 221.284,249.873 221.271,248.519 222.247 C 247.937 222.667,246.961 223.129,246.351 223.275 L 245.240 223.540 245.520 217.337 C 245.861 209.802,245.354 210.547,250.141 210.547 L 254.141 210.547 254.277 215.527 M259.996 232.451 C 260.389 232.777,260.547 233.473,260.469 234.537 L 260.352 236.133 258.203 236.408 C 254.751 236.849,254.071 236.127,254.928 232.931 C 255.285 231.602,258.594 231.288,259.996 232.451 M278.820 236.321 C 278.140 237.409,277.344 237.632,277.344 236.734 C 277.344 236.275,277.679 235.927,278.223 235.823 C 278.706 235.729,279.147 235.629,279.203 235.600 C 279.258 235.571,279.086 235.895,278.820 236.321 M201.134 258.363 C 203.153 259.431,206.201 262.681,207.123 264.752 C 208.156 267.071,208.321 274.969,207.324 274.354 C 207.163 274.254,207.031 274.458,207.031 274.807 C 207.031 275.156,206.095 276.378,204.951 277.522 C 193.415 289.058,176.689 274.099,186.553 261.068 C 189.086 257.723,197.106 256.235,201.134 258.363 M185.352 262.109 C 184.618 263.529,184.358 263.594,184.462 262.333 C 184.505 261.811,184.667 261.463,184.822 261.558 C 184.976 261.653,185.213 261.553,185.348 261.334 C 185.908 260.428,185.911 261.027,185.352 262.109 M192.773 262.760 C 191.031 263.681,190.182 264.533,190.411 265.132 C 190.524 265.426,190.465 265.572,190.280 265.458 C 189.670 265.081,188.565 268.721,188.787 270.377 C 189.616 276.556,197.971 278.707,201.629 273.683 C 205.755 268.014,198.880 259.533,192.773 262.760 " stroke="none" fill="#2a3b4c" fill-rule="evenodd"></path><path id="path2" d="M182.121 65.416 C 117.361 72.529,69.956 125.103,69.927 189.844 C 69.901 248.607,111.258 299.905,167.969 311.453 C 217.670 321.573,266.107 305.190,295.375 268.359 C 300.309 262.151,303.335 257.725,306.404 252.227 C 314.586 237.569,318.951 225.040,321.061 210.156 C 330.635 142.611,290.067 82.210,225.586 68.005 C 214.097 65.474,193.022 64.218,182.121 65.416 M239.751 83.745 C 248.163 85.504,255.096 91.769,257.739 100.000 C 259.213 104.593,259.348 106.490,259.099 119.114 L 258.860 131.250 260.113 131.250 C 263.853 131.250,264.147 132.042,263.989 141.698 C 263.848 150.328,263.597 151.072,260.604 151.716 L 258.984 152.064 258.978 169.294 C 258.972 187.971,258.976 187.936,256.927 187.196 C 256.202 186.933,254.551 186.719,253.259 186.719 L 250.909 186.719 251.042 166.699 C 251.256 134.332,251.567 110.877,251.807 108.887 L 252.032 107.031 249.844 107.031 L 247.656 107.031 247.656 109.942 C 247.656 118.221,243.769 122.436,237.361 121.105 C 232.621 120.121,230.469 116.674,230.469 110.065 L 230.469 106.600 228.418 106.718 L 226.367 106.836 226.132 111.133 C 225.870 115.909,225.742 116.371,224.101 118.433 C 222.620 120.294,220.390 121.186,217.187 121.199 C 211.355 121.222,208.629 117.751,208.603 110.272 L 208.594 107.457 207.266 107.208 C 204.602 106.708,204.517 106.821,204.263 111.137 C 203.893 117.437,202.109 120.172,197.779 121.076 C 190.273 122.643,186.345 118.527,186.331 109.082 L 186.328 107.031 184.433 107.031 L 182.537 107.031 182.282 110.645 C 181.749 118.176,179.307 121.095,173.438 121.216 C 167.554 121.338,164.844 117.951,164.844 110.476 L 164.844 107.031 162.737 107.031 L 160.631 107.031 160.485 111.426 L 160.339 115.820 158.805 117.860 C 156.976 120.293,155.087 121.094,151.179 121.094 C 145.648 121.094,143.179 117.962,143.263 111.055 L 143.313 107.031 141.132 107.031 L 138.951 107.031 139.202 109.432 C 139.340 110.753,139.453 141.998,139.453 178.866 L 139.453 245.898 177.879 245.847 L 216.304 245.795 218.403 248.730 C 226.413 259.930,244.403 267.385,256.025 264.321 C 258.981 263.541,258.984 263.544,258.984 267.128 C 258.984 280.585,248.910 290.527,234.766 291.029 C 222.358 291.469,156.205 291.466,153.107 291.025 C 142.941 289.578,135.569 283.184,132.593 273.234 L 131.545 269.727 131.585 217.285 L 131.625 164.844 130.448 164.844 C 126.337 164.844,125.391 163.144,125.391 155.757 L 125.391 150.146 126.520 149.064 C 127.420 148.201,128.015 147.982,129.450 147.982 L 131.250 147.982 131.250 145.475 L 131.250 142.969 129.332 142.969 C 125.931 142.969,125.391 141.868,125.391 134.937 C 125.391 128.140,126.011 126.871,129.370 126.797 L 131.139 126.758 131.376 122.070 C 131.506 119.492,131.513 116.152,131.392 114.648 C 130.162 99.474,137.437 87.629,150.156 84.095 C 154.606 82.858,234.025 82.548,239.751 83.745 M178.870 95.251 C 177.874 96.518,177.928 97.038,179.199 98.426 L 180.273 99.598 195.520 99.859 L 210.767 100.120 211.829 98.858 C 213.119 97.325,213.148 96.812,212.012 95.557 L 211.133 94.586 195.374 94.445 L 179.616 94.304 178.870 95.251 M163.490 132.128 C 164.806 132.813,165.567 133.996,165.972 135.985 L 166.241 137.305 171.695 137.595 C 174.694 137.754,188.544 137.842,202.473 137.790 L 227.797 137.695 228.938 138.971 C 230.320 140.517,230.320 140.507,229.097 145.330 C 228.557 147.459,227.421 153.204,226.573 158.096 C 223.420 176.267,222.800 178.461,220.466 179.710 C 219.879 180.024,212.930 180.171,196.570 180.213 C 183.883 180.246,173.404 180.372,173.284 180.492 C 173.012 180.764,173.985 187.006,174.358 187.379 C 174.509 187.530,184.905 187.669,197.461 187.687 C 219.643 187.721,220.320 187.744,221.335 188.502 C 223.096 189.816,223.237 190.886,221.821 192.179 L 220.601 193.293 221.392 194.986 C 222.883 198.180,222.851 198.624,221.002 200.520 C 220.085 201.459,218.737 203.265,218.005 204.532 C 214.642 210.357,214.157 210.757,210.972 210.342 C 204.500 209.499,201.348 205.555,201.394 198.356 L 201.420 194.172 194.069 194.059 C 190.026 193.996,186.718 193.958,186.718 193.973 C 186.719 193.989,187.003 194.836,187.351 195.856 C 189.050 200.843,185.867 207.925,181.016 209.952 C 172.745 213.408,164.379 203.710,168.547 195.498 L 170.019 192.597 168.815 191.225 C 167.410 189.625,167.004 188.261,166.425 183.203 C 166.192 181.162,165.744 178.086,165.430 176.367 C 165.115 174.648,164.412 170.166,163.867 166.406 C 163.057 160.817,159.879 142.380,159.183 139.231 C 159.013 138.457,158.761 138.423,153.366 138.449 C 147.918 138.476,147.692 138.444,146.715 137.530 C 145.229 136.139,145.306 133.930,146.896 132.340 L 148.090 131.147 155.197 131.329 C 160.642 131.468,162.582 131.655,163.490 132.128 M168.154 145.117 C 170.377 159.285,169.511 157.646,174.692 157.495 L 178.876 157.372 178.642 150.854 C 178.513 147.269,178.388 144.309,178.364 144.277 C 178.340 144.245,175.991 144.157,173.145 144.082 L 167.970 143.945 168.154 145.117 M184.959 144.144 C 184.857 144.308,184.886 147.407,185.023 151.030 L 185.272 157.617 188.632 157.479 C 192.645 157.315,192.107 158.454,191.887 150.586 L 191.701 143.945 188.422 143.896 C 186.619 143.868,185.060 143.980,184.959 144.144 M198.048 150.879 L 198.049 157.617 201.857 157.617 L 205.664 157.617 205.783 150.879 L 205.902 144.141 201.975 144.141 L 198.047 144.141 198.048 150.879 M212.146 150.977 L 212.056 157.813 215.607 157.813 C 219.815 157.813,219.486 158.211,220.724 151.606 C 221.182 149.159,221.797 146.479,222.089 145.649 L 222.622 144.141 217.429 144.141 L 212.237 144.141 212.146 150.977 M171.094 165.110 C 171.094 165.901,171.290 168.076,171.529 169.942 L 171.964 173.336 174.321 173.582 C 179.537 174.127,179.472 174.206,179.055 167.758 L 178.791 163.672 174.942 163.672 L 171.094 163.672 171.094 165.110 M185.156 168.652 L 185.156 173.633 188.457 173.633 C 192.380 173.633,192.174 173.951,192.182 167.871 L 192.188 163.672 188.672 163.672 L 185.156 163.672 185.156 168.652 M198.047 168.750 L 198.047 173.828 201.707 173.828 L 205.367 173.828 205.609 172.363 C 205.742 171.558,205.853 169.272,205.855 167.285 L 205.859 163.672 201.953 163.672 L 198.047 163.672 198.047 168.750 M211.930 168.359 C 211.598 173.919,211.556 173.828,214.458 173.828 L 216.761 173.828 217.010 172.363 C 217.147 171.558,217.597 169.422,218.011 167.617 C 218.425 165.813,218.716 164.299,218.659 164.254 C 218.602 164.208,217.127 164.066,215.381 163.938 L 212.208 163.704 211.930 168.359 M256.036 194.540 C 276.227 199.003,287.789 222.453,278.603 240.309 C 261.845 272.882,216.157 261.118,217.698 224.626 C 218.550 204.443,236.634 190.251,256.036 194.540 M175.921 195.700 C 173.518 196.670,173.129 199.770,175.156 201.797 C 177.926 204.567,181.406 202.735,181.406 198.506 C 181.406 196.115,178.533 194.646,175.921 195.700 M209.961 195.682 C 205.539 197.491,208.026 204.171,212.788 203.277 C 214.395 202.976,215.842 200.414,215.400 198.653 C 214.842 196.430,211.968 194.860,209.961 195.682 M246.271 210.966 C 245.928 211.522,245.391 222.770,245.690 223.137 C 245.818 223.294,246.533 223.086,247.278 222.675 C 250.641 220.819,250.311 220.871,251.494 222.004 C 253.779 224.194,254.450 223.556,254.160 219.471 C 254.020 217.505,253.906 214.692,253.906 213.221 L 253.906 210.547 250.218 210.547 C 248.013 210.547,246.426 210.715,246.271 210.966 M232.936 211.331 C 231.324 211.980,231.250 212.670,231.253 227.025 C 231.256 246.044,229.146 244.112,249.932 244.128 L 265.685 244.141 266.827 242.999 C 268.178 241.647,268.108 242.534,267.993 228.286 C 267.934 221.012,268.055 216.755,268.351 215.656 C 269.326 212.033,263.986 209.839,257.263 211.100 L 255.820 211.371 255.937 213.400 L 256.055 215.430 259.668 215.542 L 263.281 215.654 263.281 227.363 L 263.281 239.073 249.707 238.970 L 236.133 238.867 236.014 229.688 C 235.949 224.639,236.007 219.409,236.143 218.066 L 236.390 215.625 237.864 215.625 C 238.675 215.625,240.419 215.512,241.740 215.374 L 244.141 215.123 244.141 213.030 L 244.141 210.938 238.965 210.962 C 236.118 210.976,233.405 211.142,232.936 211.331 M255.339 232.292 C 255.195 232.435,255.078 233.402,255.078 234.440 L 255.078 236.328 256.999 236.328 C 260.025 236.328,261.465 234.278,259.688 232.500 C 259.195 232.007,255.786 231.844,255.339 232.292 M192.596 257.826 C 181.856 260.071,180.722 275.674,190.955 280.393 C 197.150 283.249,204.928 279.952,207.052 273.570 C 210.114 264.370,202.251 255.807,192.596 257.826 M198.633 262.644 C 206.019 266.113,203.996 276.534,195.933 276.556 C 190.563 276.571,187.222 272.139,188.869 267.183 C 190.404 262.559,194.449 260.679,198.633 262.644 M0.136 388.281 C 0.136 390.107,0.204 390.854,0.286 389.941 C 0.368 389.028,0.368 387.534,0.286 386.621 C 0.204 385.708,0.136 386.455,0.136 388.281 " stroke="none" fill="#ecf1ef" fill-rule="evenodd"></path><path id="path3" d="M159.828 113.405 C 159.794 114.010,159.584 114.844,159.361 115.260 C 159.079 115.788,159.083 116.016,159.374 116.016 C 159.978 116.016,160.234 115.106,160.051 113.611 C 159.907 112.436,159.884 112.415,159.828 113.405 M258.744 125.000 C 258.744 127.686,258.807 128.784,258.883 127.441 C 258.959 126.099,258.959 123.901,258.883 122.559 C 258.807 121.216,258.744 122.314,258.744 125.000 M251.352 147.266 C 251.352 157.471,251.403 161.646,251.464 156.543 C 251.526 151.440,251.526 143.091,251.464 137.988 C 251.403 132.886,251.352 137.061,251.352 147.266 M125.541 134.375 C 125.541 137.061,125.604 138.159,125.680 136.816 C 125.756 135.474,125.756 133.276,125.680 131.934 C 125.604 130.591,125.541 131.689,125.541 134.375 M263.797 139.844 C 263.797 141.240,263.868 141.812,263.954 141.113 C 264.041 140.415,264.041 139.272,263.954 138.574 C 263.868 137.876,263.797 138.447,263.797 139.844 M198.730 144.026 C 199.214 144.119,200.005 144.119,200.488 144.026 C 200.972 143.933,200.576 143.856,199.609 143.856 C 198.643 143.856,198.247 143.933,198.730 144.026 M205.971 145.508 C 205.974 146.582,206.050 146.975,206.140 146.381 C 206.229 145.788,206.227 144.909,206.134 144.428 C 206.042 143.948,205.968 144.434,205.971 145.508 M217.676 144.019 C 218.052 144.118,218.667 144.118,219.043 144.019 C 219.419 143.921,219.111 143.841,218.359 143.841 C 217.607 143.841,217.300 143.921,217.676 144.019 M258.756 160.156 C 258.756 164.131,258.814 165.757,258.885 163.770 C 258.956 161.782,258.956 158.530,258.885 156.543 C 258.814 154.556,258.756 156.182,258.756 160.156 M125.489 156.836 C 125.493 157.695,125.573 158.001,125.667 157.515 C 125.760 157.029,125.757 156.326,125.659 155.952 C 125.561 155.579,125.485 155.977,125.489 156.836 M188.184 157.698 C 188.667 157.791,189.458 157.791,189.941 157.698 C 190.425 157.604,190.029 157.528,189.063 157.528 C 188.096 157.528,187.700 157.604,188.184 157.698 M131.775 168.164 C 131.776 169.883,131.845 170.537,131.927 169.619 C 132.010 168.700,132.009 167.294,131.925 166.494 C 131.841 165.694,131.773 166.445,131.775 168.164 M205.971 168.164 C 205.974 169.238,206.050 169.631,206.140 169.038 C 206.229 168.444,206.227 167.565,206.134 167.084 C 206.042 166.604,205.968 167.090,205.971 168.164 M251.297 169.531 C 251.297 170.928,251.368 171.499,251.454 170.801 C 251.541 170.103,251.541 168.960,251.454 168.262 C 251.368 167.563,251.297 168.135,251.297 169.531 M194.244 194.030 C 194.837 194.120,195.716 194.118,196.197 194.025 C 196.677 193.932,196.191 193.859,195.117 193.862 C 194.043 193.865,193.650 193.941,194.244 194.030 M226.756 203.518 C 225.566 204.760,224.961 206.312,226.004 205.446 C 226.306 205.195,226.464 204.845,226.355 204.667 C 226.245 204.490,226.379 204.202,226.652 204.028 C 227.211 203.671,228.313 202.344,228.051 202.344 C 227.957 202.344,227.374 202.872,226.756 203.518 M131.775 211.133 C 131.776 212.852,131.845 213.506,131.927 212.587 C 132.010 211.669,132.009 210.262,131.925 209.462 C 131.841 208.662,131.773 209.414,131.775 211.133 M236.621 210.823 C 237.104 210.916,237.896 210.916,238.379 210.823 C 238.862 210.729,238.467 210.653,237.500 210.653 C 236.533 210.653,236.138 210.729,236.621 210.823 M253.997 213.281 C 253.997 214.033,254.077 214.341,254.176 213.965 C 254.274 213.589,254.274 212.974,254.176 212.598 C 254.077 212.222,253.997 212.529,253.997 213.281 M262.989 217.383 C 262.993 218.242,263.073 218.548,263.167 218.062 C 263.260 217.576,263.257 216.873,263.159 216.499 C 263.061 216.126,262.985 216.523,262.989 217.383 M268.080 220.117 C 268.083 221.191,268.159 221.584,268.249 220.991 C 268.339 220.397,268.336 219.518,268.244 219.038 C 268.151 218.557,268.078 219.043,268.080 220.117 M281.341 225.391 C 281.341 226.143,281.421 226.450,281.519 226.074 C 281.618 225.698,281.618 225.083,281.519 224.707 C 281.421 224.331,281.341 224.639,281.341 225.391 M262.981 236.328 C 262.981 237.080,263.062 237.388,263.160 237.012 C 263.258 236.636,263.258 236.021,263.160 235.645 C 263.062 235.269,262.981 235.576,262.981 236.328 M278.223 235.823 C 277.679 235.927,277.344 236.275,277.344 236.734 C 277.344 237.632,278.140 237.409,278.820 236.321 C 279.086 235.895,279.258 235.571,279.203 235.600 C 279.147 235.629,278.706 235.729,278.223 235.823 M278.765 237.305 C 278.641 237.627,278.271 237.891,277.942 237.891 C 277.613 237.891,277.344 238.096,277.344 238.346 C 277.344 238.597,277.235 238.693,277.102 238.560 C 276.763 238.221,275.684 239.371,275.945 239.793 C 276.063 239.984,275.886 240.687,275.552 241.356 C 274.804 242.856,275.128 244.459,276.003 243.584 C 276.311 243.276,276.563 242.836,276.563 242.606 C 276.563 242.376,276.738 242.188,276.953 242.188 C 277.168 242.188,277.344 242.001,277.344 241.774 C 277.344 241.546,277.124 241.492,276.855 241.653 C 276.524 241.853,276.539 241.735,276.903 241.286 C 277.198 240.922,277.676 240.625,277.965 240.625 C 278.295 240.625,278.398 240.383,278.242 239.975 C 278.093 239.587,278.150 239.423,278.385 239.568 C 278.702 239.763,280.078 237.595,280.078 236.901 C 280.078 236.441,278.965 236.784,278.765 237.305 M242.485 244.417 C 242.971 244.510,243.674 244.507,244.048 244.409 C 244.421 244.311,244.023 244.235,243.164 244.239 C 242.305 244.243,241.999 244.323,242.485 244.417 M252.051 244.425 C 252.856 244.509,254.175 244.509,254.980 244.425 C 255.786 244.341,255.127 244.272,253.516 244.272 C 251.904 244.272,251.245 244.341,252.051 244.425 M258.691 244.420 C 259.282 244.510,260.249 244.510,260.840 244.420 C 261.431 244.331,260.947 244.258,259.766 244.258 C 258.584 244.258,258.101 244.331,258.691 244.420 M214.551 245.972 C 214.927 246.071,215.542 246.071,215.918 245.972 C 216.294 245.874,215.986 245.794,215.234 245.794 C 214.482 245.794,214.175 245.874,214.551 245.972 M226.012 248.771 C 225.898 248.955,226.283 249.526,226.868 250.041 L 227.930 250.977 227.047 249.971 C 226.562 249.418,226.284 248.847,226.429 248.701 C 226.574 248.556,226.586 248.438,226.455 248.438 C 226.325 248.438,226.125 248.588,226.012 248.771 M185.348 261.334 C 185.213 261.553,184.976 261.653,184.822 261.558 C 184.667 261.463,184.508 261.855,184.468 262.431 C 184.403 263.375,184.446 263.411,184.912 262.799 C 185.196 262.426,185.506 262.198,185.599 262.292 C 185.693 262.386,185.770 262.120,185.770 261.700 C 185.770 260.835,185.696 260.771,185.348 261.334 M131.739 266.992 C 131.743 267.852,131.823 268.157,131.917 267.671 C 132.010 267.185,132.007 266.482,131.909 266.109 C 131.811 265.735,131.735 266.133,131.739 266.992 M258.700 267.578 C 258.700 268.545,258.776 268.940,258.869 268.457 C 258.963 267.974,258.963 267.183,258.869 266.699 C 258.776 266.216,258.700 266.611,258.700 267.578 " stroke="none" fill="#47535e" fill-rule="evenodd"></path><path id="path4" d="M192.090 94.431 C 193.862 94.504,196.763 94.504,198.535 94.431 C 200.308 94.359,198.857 94.300,195.313 94.300 C 191.768 94.300,190.317 94.359,192.090 94.431 M230.594 110.156 C 230.594 111.553,230.665 112.124,230.751 111.426 C 230.838 110.728,230.838 109.585,230.751 108.887 C 230.665 108.188,230.594 108.760,230.594 110.156 M247.364 110.352 C 247.368 111.211,247.448 111.517,247.542 111.031 C 247.635 110.545,247.632 109.842,247.534 109.468 C 247.436 109.095,247.360 109.492,247.364 110.352 M160.268 111.133 C 160.271 112.207,160.347 112.600,160.437 112.006 C 160.526 111.413,160.524 110.534,160.431 110.053 C 160.339 109.573,160.265 110.059,160.268 111.133 M139.218 117.969 C 139.218 121.084,139.278 122.358,139.353 120.801 C 139.427 119.243,139.427 116.694,139.353 115.137 C 139.278 113.579,139.218 114.854,139.218 117.969 M194.629 121.363 C 195.005 121.461,195.620 121.461,195.996 121.363 C 196.372 121.265,196.064 121.184,195.313 121.184 C 194.561 121.184,194.253 121.265,194.629 121.363 M251.289 126.953 C 251.289 128.135,251.362 128.618,251.452 128.027 C 251.541 127.437,251.541 126.470,251.452 125.879 C 251.362 125.288,251.289 125.771,251.289 126.953 M139.207 130.469 C 139.207 132.725,139.272 133.647,139.350 132.520 C 139.429 131.392,139.429 129.546,139.350 128.418 C 139.272 127.290,139.207 128.213,139.207 130.469 M151.660 131.530 C 152.251 131.619,153.218 131.619,153.809 131.530 C 154.399 131.440,153.916 131.367,152.734 131.367 C 151.553 131.367,151.069 131.440,151.660 131.530 M139.213 146.875 C 139.213 149.561,139.275 150.659,139.352 149.316 C 139.428 147.974,139.428 145.776,139.352 144.434 C 139.275 143.091,139.213 144.189,139.213 146.875 M263.800 144.727 C 263.802 146.230,263.872 146.798,263.957 145.987 C 264.042 145.177,264.040 143.946,263.954 143.253 C 263.868 142.560,263.798 143.223,263.800 144.727 M220.219 144.026 C 220.705 144.120,221.408 144.116,221.782 144.018 C 222.155 143.921,221.758 143.844,220.898 143.849 C 220.039 143.853,219.733 143.933,220.219 144.026 M197.788 147.266 C 197.788 148.877,197.857 149.536,197.941 148.730 C 198.025 147.925,198.025 146.606,197.941 145.801 C 197.857 144.995,197.788 145.654,197.788 147.266 M184.864 156.055 C 184.868 156.914,184.948 157.220,185.042 156.734 C 185.135 156.248,185.132 155.545,185.034 155.171 C 184.936 154.798,184.860 155.195,184.864 156.055 M205.950 165.234 C 205.950 165.986,206.030 166.294,206.129 165.918 C 206.227 165.542,206.227 164.927,206.129 164.551 C 206.030 164.175,205.950 164.482,205.950 165.234 M139.227 187.500 C 139.227 191.904,139.284 193.706,139.354 191.504 C 139.423 189.302,139.423 185.698,139.354 183.496 C 139.284 181.294,139.227 183.096,139.227 187.500 M250.898 184.375 C 250.898 185.557,250.972 186.040,251.061 185.449 C 251.151 184.858,251.151 183.892,251.061 183.301 C 250.972 182.710,250.898 183.193,250.898 184.375 M252.251 186.604 C 252.737 186.698,253.440 186.694,253.813 186.597 C 254.187 186.499,253.789 186.422,252.930 186.427 C 252.070 186.431,251.765 186.511,252.251 186.604 M139.188 205.469 C 139.188 206.865,139.258 207.437,139.345 206.738 C 139.432 206.040,139.432 204.897,139.345 204.199 C 139.258 203.501,139.188 204.072,139.188 205.469 M239.947 210.827 C 240.541 210.917,241.419 210.915,241.900 210.822 C 242.380 210.729,241.895 210.656,240.820 210.659 C 239.746 210.662,239.353 210.737,239.947 210.827 M236.044 221.484 C 236.044 222.451,236.120 222.847,236.213 222.363 C 236.306 221.880,236.306 221.089,236.213 220.605 C 236.120 220.122,236.044 220.518,236.044 221.484 M268.107 225.195 C 268.106 227.129,268.172 227.969,268.254 227.063 C 268.336 226.156,268.337 224.574,268.256 223.547 C 268.176 222.520,268.109 223.262,268.107 225.195 M230.958 223.633 C 230.962 224.492,231.042 224.798,231.136 224.312 C 231.229 223.826,231.226 223.123,231.128 222.749 C 231.030 222.376,230.954 222.773,230.958 223.633 M236.059 235.352 C 236.061 236.641,236.134 237.121,236.221 236.419 C 236.308 235.717,236.306 234.662,236.217 234.075 C 236.127 233.488,236.056 234.063,236.059 235.352 M254.778 234.766 C 254.778 235.518,254.859 235.825,254.957 235.449 C 255.055 235.073,255.055 234.458,254.957 234.082 C 254.859 233.706,254.778 234.014,254.778 234.766 M245.801 238.956 C 246.606 239.041,247.925 239.041,248.730 238.956 C 249.536 238.872,248.877 238.803,247.266 238.803 C 245.654 238.803,244.995 238.872,245.801 238.956 M255.969 238.959 C 256.996 239.040,258.578 239.039,259.484 238.957 C 260.391 238.875,259.551 238.809,257.617 238.811 C 255.684 238.812,254.942 238.879,255.969 238.959 M139.174 243.945 C 139.177 245.020,139.253 245.413,139.343 244.819 C 139.433 244.225,139.430 243.346,139.337 242.866 C 139.245 242.385,139.171 242.871,139.174 243.945 M262.402 244.416 C 262.886 244.509,263.677 244.509,264.160 244.416 C 264.644 244.323,264.248 244.247,263.281 244.247 C 262.314 244.247,261.919 244.323,262.402 244.416 M155.940 245.992 C 157.381 246.067,159.842 246.068,161.409 245.994 C 162.976 245.919,161.797 245.858,158.789 245.857 C 155.781 245.857,154.499 245.917,155.940 245.992 M210.050 245.985 C 210.743 246.071,211.974 246.073,212.784 245.988 C 213.595 245.904,213.027 245.833,211.523 245.831 C 210.020 245.830,209.356 245.899,210.050 245.985 M249.712 265.124 C 250.306 265.214,251.185 265.211,251.666 265.119 C 252.146 265.026,251.660 264.953,250.586 264.955 C 249.512 264.958,249.119 265.034,249.712 265.124 M202.825 269.531 C 202.825 270.283,202.905 270.591,203.004 270.215 C 203.102 269.839,203.102 269.224,203.004 268.848 C 202.905 268.472,202.825 268.779,202.825 269.531 M207.911 270.117 C 207.915 270.977,207.995 271.282,208.089 270.796 C 208.182 270.310,208.179 269.607,208.081 269.234 C 207.983 268.860,207.907 269.258,207.911 270.117 M183.887 291.308 C 187.163 291.373,192.524 291.373,195.801 291.308 C 199.077 291.242,196.396 291.189,189.844 291.189 C 183.291 291.189,180.610 291.242,183.887 291.308 " stroke="none" fill="#65737c" fill-rule="evenodd"></path></g></svg>