<svg id="svg" version="1.1" xmlns="http://www.w3.org/2000/svg" xmlns:xlink="http://www.w3.org/1999/xlink" width="400" height="400" viewBox="0, 0, 400,400"><g id="svgg"><path id="path0" d="M0.000 200.000 L 0.000 400.000 200.000 400.000 L 400.000 400.000 400.000 200.000 L 400.000 0.000 200.000 0.000 L 0.000 0.000 0.000 200.000 M194.531 85.561 C 206.067 87.375,215.211 95.518,217.980 106.445 C 218.761 109.524,218.773 110.582,218.793 177.930 C 218.819 261.896,219.167 256.592,213.158 263.867 C 207.509 270.707,203.299 273.416,195.611 275.160 C 194.670 275.374,165.994 275.625,121.875 275.807 C 106.240 275.871,104.868 275.709,99.937 273.210 C 90.155 268.253,86.163 260.358,85.535 244.727 C 84.901 228.948,85.064 111.428,85.724 108.290 C 88.056 97.205,93.692 90.590,104.198 86.607 C 106.441 85.756,106.518 85.754,147.070 85.544 C 169.414 85.428,188.662 85.294,189.844 85.247 C 191.025 85.201,193.135 85.342,194.531 85.561 M150.646 92.511 C 149.565 93.707,150.547 96.875,152.000 96.875 C 152.701 96.875,154.297 94.819,154.297 93.916 C 154.297 92.006,151.928 91.095,150.646 92.511 M240.977 96.543 C 241.213 97.219,241.411 99.724,241.417 102.109 C 241.445 113.784,242.689 117.251,247.656 119.500 C 249.383 120.281,250.043 120.295,285.109 120.304 L 320.805 120.313 320.607 122.067 C 320.330 124.527,318.532 127.883,316.056 130.563 C 313.200 133.655,311.790 134.215,306.055 134.540 C 299.893 134.888,299.609 134.968,299.609 136.370 C 299.609 137.114,299.810 137.500,300.195 137.500 C 300.518 137.500,300.781 137.669,300.781 137.876 C 300.781 138.217,301.739 138.540,304.785 139.226 C 306.210 139.547,306.140 140.197,304.445 142.418 C 301.149 146.735,301.150 149.081,304.455 165.625 C 307.831 182.533,310.833 206.209,309.836 208.072 C 309.606 208.501,308.310 209.434,306.955 210.144 C 305.601 210.855,303.965 211.826,303.320 212.303 C 301.181 213.886,297.974 215.295,294.376 216.232 C 292.420 216.742,289.238 217.717,287.305 218.399 C 283.082 219.888,269.278 220.750,267.096 219.661 C 263.886 218.057,263.842 212.712,267.007 208.789 C 272.035 202.555,272.071 199.807,267.404 177.930 L 264.821 165.820 264.444 154.297 C 264.237 147.959,263.962 142.311,263.833 141.745 C 263.507 140.317,264.098 140.076,267.657 140.181 C 270.928 140.278,271.782 139.416,270.089 137.723 C 269.671 137.305,269.630 137.109,269.959 137.109 C 270.225 137.109,270.316 136.983,270.161 136.828 C 270.006 136.673,265.451 136.434,260.037 136.296 C 248.769 136.010,247.608 135.770,240.925 132.349 C 232.848 128.215,231.283 124.044,230.245 103.891 C 229.838 95.977,230.307 95.343,236.583 95.324 L 240.549 95.313 240.977 96.543 M286.523 96.498 C 295.554 97.260,305.525 99.875,310.366 102.751 C 314.795 105.381,320.313 111.633,320.313 114.020 C 320.313 114.862,249.481 114.609,248.717 113.765 C 247.858 112.816,247.297 109.050,247.004 102.278 L 246.756 96.548 247.890 96.379 C 250.281 96.024,282.066 96.121,286.523 96.498 M109.310 101.421 C 106.244 102.583,103.724 104.604,102.909 106.554 C 102.278 108.065,101.939 174.625,102.549 177.148 C 103.354 180.476,105.767 183.449,108.794 184.844 L 110.742 185.742 151.758 185.742 L 192.773 185.742 195.219 184.613 C 197.878 183.385,200.111 181.226,201.066 178.961 C 201.780 177.265,201.853 111.191,201.144 108.513 C 200.642 106.619,198.611 103.988,196.615 102.648 C 193.182 100.342,194.124 100.389,151.187 100.412 L 111.914 100.434 109.310 101.421 M152.315 115.092 C 153.966 117.190,153.451 118.456,149.071 123.068 C 147.326 124.906,143.877 128.669,141.406 131.429 C 138.936 134.190,134.805 138.720,132.227 141.497 C 129.648 144.274,126.734 147.543,125.750 148.761 C 121.295 154.278,118.460 154.807,116.166 150.551 C 115.290 148.926,114.857 149.471,125.965 138.206 C 135.293 128.748,140.300 123.225,144.393 117.884 C 147.605 113.692,150.431 112.696,152.315 115.092 M259.281 141.194 C 259.485 141.374,260.471 159.572,260.293 159.860 C 259.988 160.354,256.310 160.192,254.950 159.623 C 251.775 158.297,250.911 156.089,251.710 151.341 C 252.033 149.422,252.419 146.621,252.567 145.117 C 253.003 140.709,252.954 140.764,256.307 140.947 C 257.887 141.033,259.225 141.144,259.281 141.194 M282.650 151.634 C 281.497 153.281,282.146 159.501,284.406 168.448 C 285.518 172.849,288.631 187.974,289.087 191.185 C 290.194 198.997,287.613 204.216,280.233 209.089 C 277.536 210.870,274.219 214.035,274.219 214.828 C 274.219 217.240,283.248 214.258,287.927 210.301 C 296.838 202.765,296.840 193.786,287.942 156.868 C 287.109 153.411,286.729 152.473,285.938 151.919 C 284.241 150.733,283.337 150.654,282.650 151.634 M108.210 200.051 C 105.004 202.005,104.838 207.231,107.910 209.511 C 109.335 210.569,118.978 210.527,120.794 209.455 C 123.030 208.133,122.125 201.146,119.544 199.811 C 117.633 198.823,109.958 198.985,108.210 200.051 M159.171 199.764 C 155.099 201.538,154.686 207.837,158.487 210.205 C 160.394 211.393,169.610 210.894,170.975 209.529 C 172.709 207.795,172.155 202.118,170.064 200.180 C 168.839 199.045,161.467 198.763,159.171 199.764 M132.580 201.302 C 130.762 203.119,130.811 202.855,131.480 207.301 C 131.874 209.922,133.434 210.603,138.826 210.507 C 145.837 210.383,146.875 209.760,146.875 205.677 C 146.875 200.571,145.646 199.609,139.119 199.609 L 134.272 199.609 132.580 201.302 M182.809 200.649 C 181.155 202.041,180.912 202.863,181.272 205.852 C 181.750 209.823,183.382 211.136,187.416 210.795 C 189.031 210.659,191.482 210.547,192.862 210.547 C 196.653 210.547,197.656 209.417,197.656 205.149 C 197.656 202.072,197.639 202.019,196.275 200.822 L 194.895 199.609 189.470 199.609 C 184.165 199.609,184.017 199.632,182.809 200.649 M107.232 218.976 C 105.269 221.094,105.474 225.083,107.657 227.266 L 108.994 228.603 114.555 228.337 C 119.735 228.089,120.175 228.007,120.956 227.146 C 122.837 225.073,122.229 219.594,119.984 218.393 C 118.145 217.409,108.266 217.860,107.232 218.976 M132.932 218.554 C 130.083 220.549,130.733 226.961,133.907 228.171 C 136.240 229.061,144.399 228.437,145.554 227.281 C 147.400 225.433,147.360 221.413,145.473 219.171 L 144.462 217.969 139.115 217.969 C 134.997 217.969,133.576 218.103,132.932 218.554 M157.973 218.847 C 154.889 221.273,155.238 226.612,158.593 228.309 C 160.499 229.273,169.713 228.618,170.897 227.434 C 172.503 225.828,172.342 221.571,170.605 219.751 L 169.336 218.420 164.133 218.257 C 159.441 218.110,158.836 218.168,157.973 218.847 M183.233 218.789 C 180.428 220.495,180.537 226.410,183.409 228.291 C 185.229 229.484,194.962 229.120,196.209 227.813 C 198.891 225.001,198.498 220.577,195.427 219.014 C 193.586 218.077,184.674 217.913,183.233 218.789 M132.929 236.035 C 130.835 238.335,130.640 240.856,132.420 242.636 L 133.590 243.806 139.487 243.681 C 145.139 243.560,145.414 243.516,146.129 242.633 C 147.499 240.939,146.538 236.621,144.556 235.560 C 142.922 234.686,133.820 235.058,132.929 236.035 M107.261 236.749 C 105.704 238.600,105.812 241.465,107.499 243.041 L 108.748 244.208 114.628 243.931 C 121.308 243.618,120.988 243.708,121.731 241.930 C 122.426 240.265,121.884 237.864,120.498 236.479 C 119.603 235.583,119.350 235.547,113.920 235.547 L 108.273 235.547 107.261 236.749 M157.250 236.849 C 153.647 241.573,156.030 244.141,164.019 244.141 C 171.468 244.141,173.236 242.686,171.330 238.124 C 170.359 235.801,169.598 235.547,163.605 235.547 L 158.243 235.547 157.250 236.849 M183.163 235.994 C 180.574 238.181,180.549 242.193,183.117 243.503 C 185.094 244.512,195.603 243.886,196.801 242.688 C 198.076 241.413,197.873 238.321,196.419 236.867 C 195.237 235.684,184.376 234.969,183.163 235.994 M251.800 240.269 C 252.825 241.120,252.445 293.732,251.404 294.881 C 250.314 296.086,248.066 295.994,246.845 294.696 C 245.749 293.531,245.842 297.000,245.996 262.971 L 246.094 241.371 247.100 240.364 C 248.193 239.272,250.541 239.224,251.800 240.269 M262.915 240.286 C 263.641 241.421,263.071 294.605,262.328 295.149 C 261.095 296.050,259.633 295.819,258.397 294.529 L 257.272 293.355 257.249 267.657 C 257.224 239.551,257.175 240.175,259.463 239.727 C 260.591 239.506,262.627 239.836,262.915 240.286 M273.665 240.287 C 273.816 240.530,273.932 252.681,273.924 267.288 L 273.909 293.847 272.929 294.827 C 271.784 295.972,270.614 295.849,269.074 294.421 C 267.110 292.601,266.822 242.753,268.762 240.416 C 269.335 239.725,273.255 239.622,273.665 240.287 M285.010 240.723 C 285.731 242.860,285.179 293.493,284.423 294.531 C 282.976 296.518,279.287 295.160,279.300 292.646 C 279.302 292.286,279.246 280.605,279.175 266.687 C 279.027 237.732,278.772 239.844,282.418 239.844 C 284.450 239.844,284.747 239.945,285.010 240.723 M295.689 240.599 C 295.956 241.098,296.094 250.171,296.094 267.327 L 296.094 293.299 295.082 294.501 C 293.323 296.593,289.842 295.140,289.845 292.315 C 289.845 291.708,289.802 279.943,289.749 266.171 C 289.669 245.462,289.745 241.019,290.187 240.487 C 291.009 239.497,295.144 239.581,295.689 240.599 M306.799 240.354 C 307.376 240.777,307.909 285.375,307.438 293.848 C 307.316 296.051,302.881 296.312,301.778 294.180 C 301.046 292.764,300.498 241.242,301.206 240.389 C 301.791 239.684,305.848 239.659,306.799 240.354 M107.061 249.058 C 105.915 250.023,105.859 250.205,105.859 253.016 L 105.859 255.962 107.530 257.633 L 109.202 259.304 114.388 259.196 C 121.324 259.052,121.875 258.631,121.875 253.477 C 121.875 248.378,121.387 248.047,113.867 248.047 C 108.408 248.047,108.232 248.073,107.061 249.058 M132.521 248.926 C 130.055 250.650,130.737 256.629,133.594 258.327 C 134.944 259.129,143.088 259.128,144.660 258.325 C 147.262 256.996,147.710 251.248,145.375 249.161 C 143.626 247.598,134.654 247.434,132.521 248.926 M157.773 248.941 C 155.451 250.504,155.396 255.370,157.674 257.648 L 159.010 258.984 163.659 258.984 C 170.784 258.984,171.875 258.271,171.875 253.612 C 171.875 248.637,171.034 248.047,163.944 248.047 C 159.544 248.047,158.978 248.129,157.773 248.941 M183.211 248.483 C 181.183 249.292,180.859 249.919,180.859 253.042 L 180.859 255.962 182.598 257.701 L 184.337 259.440 189.727 259.162 C 197.285 258.772,198.438 257.973,198.438 253.119 C 198.438 248.626,197.399 248.036,189.563 248.072 C 186.602 248.085,183.744 248.270,183.211 248.483 M220.140 269.478 C 219.876 277.580,218.784 282.235,215.913 287.500 C 215.034 289.111,214.103 290.836,213.843 291.332 C 213.582 291.828,213.274 292.179,213.158 292.113 C 213.041 292.046,211.747 292.899,210.282 294.006 C 206.910 296.555,203.298 298.509,199.805 299.674 L 197.070 300.586 153.125 300.449 C 106.917 300.305,106.549 300.292,101.524 298.526 C 91.615 295.043,84.662 284.315,83.752 271.106 C 83.230 263.521,83.842 262.540,86.384 266.893 C 90.616 274.140,99.559 280.157,108.203 281.575 C 118.943 283.338,194.421 281.965,200.587 279.895 C 207.844 277.459,214.065 272.685,217.057 267.254 C 218.648 264.369,219.872 262.500,220.171 262.500 C 220.279 262.500,220.265 265.640,220.140 269.478 M170.469 287.656 C 167.973 290.152,169.071 293.750,172.328 293.750 C 175.224 293.750,176.498 289.719,174.297 287.519 C 172.775 285.996,172.105 286.020,170.469 287.656 M187.444 286.981 C 185.179 289.573,185.726 292.728,188.584 293.553 C 189.853 293.919,192.188 291.556,192.188 289.905 C 192.188 287.459,188.832 285.391,187.444 286.981 " stroke="none" fill="#dedbcb" fill-rule="evenodd"></path><path id="path1" d="M110.938 85.963 C 100.302 86.480,91.600 92.404,87.952 101.610 C 85.336 108.214,85.490 102.910,85.637 181.072 L 85.770 251.758 86.811 255.577 C 89.692 266.155,95.797 272.512,105.461 274.998 C 108.267 275.720,109.503 275.731,143.731 275.354 C 163.185 275.139,182.354 275.074,186.328 275.208 C 194.656 275.489,198.943 274.711,203.906 272.017 C 206.518 270.599,211.061 266.532,210.695 265.939 C 210.581 265.756,210.678 265.654,210.910 265.713 C 211.608 265.891,215.978 260.107,216.796 257.920 C 218.537 253.268,218.555 252.463,218.555 178.516 L 218.555 108.398 217.287 104.654 C 214.201 95.536,205.786 88.011,196.552 86.112 C 193.593 85.504,122.909 85.381,110.938 85.963 M153.583 92.053 C 154.556 92.933,154.489 94.862,153.448 95.971 C 152.396 97.090,152.045 97.098,150.904 96.026 C 148.596 93.858,151.242 89.934,153.583 92.053 M232.617 95.682 C 230.199 96.671,229.970 98.552,230.878 109.961 C 232.081 125.079,233.492 128.312,240.464 131.912 C 247.403 135.496,248.081 135.633,260.352 135.955 C 272.737 136.279,274.005 136.432,275.449 137.778 C 277.567 139.753,276.949 140.028,270.122 140.147 L 263.951 140.255 264.204 142.881 C 264.343 144.326,264.562 149.902,264.690 155.273 L 264.924 165.039 267.850 178.906 C 271.925 198.216,271.995 202.218,268.345 207.227 C 265.363 211.318,265.113 211.787,264.935 213.636 C 264.471 218.465,267.626 221.165,271.752 219.470 C 273.495 218.754,274.633 218.674,275.292 219.220 C 277.610 221.142,295.574 216.597,303.043 212.199 C 304.485 211.350,306.496 210.187,307.512 209.613 C 308.529 209.039,309.546 208.223,309.772 207.801 C 310.716 206.037,306.793 177.223,303.498 161.719 C 301.240 151.096,301.409 146.243,304.162 142.580 C 306.411 139.589,306.539 139.674,299.575 139.515 C 293.364 139.373,292.578 139.096,292.578 137.050 C 292.578 135.796,298.608 134.531,306.163 134.200 C 311.682 133.958,313.046 133.457,315.804 130.660 C 318.582 127.842,321.510 121.770,320.553 120.813 C 320.385 120.645,304.222 120.508,284.635 120.508 L 249.023 120.508 246.905 119.336 C 242.544 116.924,241.829 114.971,241.439 104.416 C 241.236 98.920,240.994 96.344,240.643 95.920 C 240.087 95.250,234.106 95.072,232.617 95.682 M254.735 96.356 L 246.776 96.501 247.038 101.278 C 247.505 109.771,248.152 113.338,249.375 114.154 C 249.858 114.477,320.313 114.569,320.313 114.247 C 320.313 113.155,317.423 108.755,315.447 106.836 C 306.363 98.017,292.748 95.667,254.735 96.356 M190.964 100.375 C 195.648 101.052,199.183 103.550,200.909 107.402 C 201.862 109.527,202.506 174.663,201.608 177.971 C 200.850 180.760,198.789 182.987,195.428 184.648 L 192.423 186.133 151.973 186.133 L 111.523 186.133 109.264 185.221 C 106.561 184.130,104.674 182.291,103.221 179.333 L 102.148 177.148 102.043 142.762 L 101.937 108.376 103.019 106.272 C 104.318 103.747,106.214 102.303,109.973 100.977 L 112.695 100.016 150.586 100.016 C 171.612 100.016,189.584 100.176,190.964 100.375 M147.785 114.454 C 147.318 114.642,146.181 115.817,145.258 117.066 C 141.836 121.692,135.950 128.202,126.116 138.237 C 114.932 149.650,115.003 149.539,117.411 151.809 C 119.872 154.131,121.678 153.569,124.839 149.497 C 125.875 148.162,128.489 145.217,130.647 142.951 C 135.704 137.641,140.961 131.870,144.330 127.930 C 145.800 126.211,148.309 123.466,149.905 121.829 C 152.427 119.244,152.814 118.660,152.850 117.384 C 152.922 114.873,150.385 113.406,147.785 114.454 M252.917 143.652 C 252.768 145.103,252.322 148.308,251.926 150.776 L 251.206 155.264 252.181 156.926 C 253.375 158.964,254.723 159.700,257.862 160.028 L 260.274 160.280 260.014 155.433 C 259.871 152.767,259.645 148.542,259.512 146.044 L 259.270 141.503 257.272 141.263 C 253.077 140.758,253.222 140.679,252.917 143.652 M285.555 151.371 C 287.314 152.281,287.942 154.599,292.959 178.711 C 297.418 200.141,294.831 207.923,281.006 214.665 C 275.908 217.151,273.438 217.792,273.438 216.627 C 273.438 214.510,275.757 211.786,279.685 209.291 C 290.665 202.314,291.069 199.392,284.906 171.484 C 280.654 152.230,280.761 148.893,285.555 151.371 M120.112 200.066 C 122.956 202.303,123.079 208.336,120.311 209.821 C 118.125 210.993,109.599 210.883,107.783 209.659 C 104.599 207.514,104.698 201.954,107.956 199.968 C 109.884 198.792,118.582 198.862,120.112 200.066 M144.072 199.644 C 146.027 200.326,146.875 202.123,146.875 205.585 C 146.875 210.089,146.111 210.585,139.039 210.677 L 134.007 210.742 132.612 209.352 C 129.414 206.165,130.682 200.587,134.828 199.607 C 136.805 199.140,142.693 199.163,144.072 199.644 M170.623 200.554 C 172.781 203.012,172.789 208.146,170.637 209.957 C 169.519 210.898,169.258 210.938,164.222 210.938 L 158.973 210.938 157.535 209.620 C 156.204 208.400,156.086 208.110,155.931 205.680 C 155.603 200.534,157.349 199.219,164.503 199.219 L 169.450 199.219 170.623 200.554 M195.032 199.751 C 198.418 201.184,199.223 207.007,196.392 209.600 L 194.933 210.938 189.542 210.938 C 183.279 210.938,181.951 210.344,181.236 207.227 C 180.378 203.482,180.938 201.619,183.411 199.988 C 184.867 199.029,192.936 198.864,195.032 199.751 M120.744 219.001 C 122.736 220.994,122.816 225.657,120.890 227.583 C 119.674 228.799,109.502 229.030,107.858 227.879 C 105.448 226.190,105.068 221.026,107.198 218.896 L 108.536 217.558 114.032 217.671 L 119.528 217.785 120.744 219.001 M145.034 218.364 C 148.033 220.723,147.787 226.676,144.625 228.252 C 143.522 228.802,135.282 228.856,133.608 228.325 C 130.723 227.409,129.939 221.532,132.376 219.095 L 133.892 217.578 138.964 217.578 C 143.453 217.578,144.150 217.668,145.034 218.364 M170.516 219.266 C 172.793 221.543,172.863 226.052,170.652 227.913 C 169.021 229.285,160.049 229.433,157.900 228.123 C 155.356 226.572,154.954 221.719,157.175 219.364 L 158.491 217.969 163.855 217.969 L 169.219 217.969 170.516 219.266 M195.602 218.875 C 197.635 219.955,198.162 221.101,197.975 224.036 C 197.700 228.363,196.938 228.822,189.773 228.977 L 184.039 229.102 182.837 227.952 C 180.388 225.609,180.123 221.466,182.282 219.306 L 183.705 217.883 189.021 218.043 C 193.064 218.165,194.639 218.364,195.602 218.875 M145.473 236.204 C 146.426 237.158,147.259 239.255,147.263 240.716 C 147.265 241.089,146.782 241.920,146.191 242.563 L 145.117 243.731 139.425 243.795 C 133.095 243.866,132.153 243.587,131.234 241.367 C 130.268 239.036,132.197 235.303,134.482 235.083 C 139.007 234.646,144.472 235.203,145.473 236.204 M117.415 235.547 C 121.812 235.547,124.089 240.034,121.172 242.951 L 119.982 244.141 114.150 244.141 C 106.774 244.141,105.230 243.125,106.040 238.806 C 106.564 236.016,108.166 235.005,111.608 235.296 C 113.237 235.434,115.851 235.547,117.415 235.547 M170.569 236.479 C 174.585 241.148,172.275 243.955,164.128 244.305 L 158.530 244.545 157.195 243.210 C 155.125 241.141,155.619 237.113,158.136 235.532 C 159.660 234.575,169.581 235.331,170.569 236.479 M196.048 236.184 C 198.133 237.644,198.582 240.795,196.964 242.606 L 195.881 243.818 189.603 244.002 L 183.325 244.187 182.092 242.783 C 180.312 240.756,180.456 238.713,182.539 236.426 C 183.602 235.258,194.449 235.064,196.048 236.184 M246.690 240.996 C 246.173 241.995,246.094 245.588,246.094 267.967 L 246.094 293.786 247.053 294.744 C 248.272 295.964,250.074 296.010,251.157 294.848 C 251.940 294.007,251.953 293.603,251.956 270.141 C 251.957 257.023,252.067 245.137,252.200 243.730 C 252.506 240.501,251.998 239.844,249.201 239.844 C 247.475 239.844,247.227 239.958,246.690 240.996 M258.153 240.490 C 257.711 241.023,257.617 245.725,257.617 267.477 L 257.617 293.818 258.713 294.760 C 260.013 295.878,260.941 295.950,262.076 295.020 L 262.910 294.336 262.986 267.578 C 263.028 252.861,262.925 240.601,262.758 240.332 C 262.293 239.586,258.804 239.705,258.153 240.490 M269.637 240.118 C 268.022 240.430,267.940 241.897,268.055 268.379 L 268.164 293.427 269.260 294.370 C 270.576 295.502,272.286 295.588,273.208 294.569 C 274.228 293.442,274.182 241.096,273.160 240.332 C 272.520 239.853,271.370 239.784,269.637 240.118 M279.996 240.257 C 279.006 240.834,278.987 292.128,279.975 293.801 C 281.227 295.919,283.167 296.025,284.550 294.051 C 285.293 292.990,285.486 241.970,284.752 240.599 C 284.300 239.755,281.235 239.535,279.996 240.257 M290.248 240.599 C 289.621 241.770,289.707 292.094,290.338 293.322 C 291.600 295.777,293.910 296.234,295.189 294.281 C 296.077 292.925,296.243 241.551,295.362 240.490 C 294.546 239.506,290.790 239.587,290.248 240.599 M301.855 240.093 C 301.479 240.202,301.160 240.674,301.145 241.142 C 300.840 250.933,301.320 292.566,301.750 293.596 C 302.634 295.712,304.633 296.309,306.304 294.956 L 307.227 294.210 307.278 267.622 C 307.321 245.138,307.244 240.963,306.776 240.576 C 306.182 240.082,302.974 239.767,301.855 240.093 M194.911 248.027 C 199.772 248.965,200.417 256.010,195.884 258.657 C 194.338 259.560,184.870 259.767,183.670 258.924 C 180.299 256.553,179.300 250.757,181.953 248.959 C 183.499 247.912,191.376 247.345,194.911 248.027 M120.334 248.449 C 122.154 249.423,122.971 254.534,121.700 256.993 C 120.623 259.075,119.664 259.375,114.090 259.375 L 109.012 259.375 107.636 258.167 C 105.102 255.942,104.675 250.717,106.883 248.950 C 108.128 247.954,118.675 247.561,120.334 248.449 M145.733 249.189 C 147.445 250.901,147.447 255.597,145.736 257.513 L 144.597 258.789 139.779 259.023 C 132.713 259.366,131.155 258.335,130.920 253.162 C 130.708 248.480,131.385 248.047,138.927 248.047 L 144.591 248.047 145.733 249.189 M170.988 249.426 L 172.367 250.804 172.175 253.793 C 171.942 257.421,170.691 258.984,168.023 258.984 C 167.200 258.984,164.937 259.097,162.995 259.235 L 159.463 259.486 157.788 257.923 C 156.233 256.472,156.100 256.189,155.940 253.975 C 155.561 248.730,156.507 248.050,164.199 248.048 L 169.609 248.047 170.988 249.426 M217.812 266.311 C 213.980 273.146,208.284 277.611,200.000 280.275 C 195.747 281.643,177.070 282.206,135.742 282.209 L 108.789 282.212 105.400 281.155 C 96.938 278.516,89.427 272.928,86.015 266.731 C 84.002 263.076,83.874 263.279,84.093 269.774 C 84.612 285.100,91.503 295.189,104.112 299.082 L 107.617 300.164 124.609 300.056 C 133.955 299.997,152.148 300.156,165.039 300.411 C 196.143 301.025,199.127 300.743,206.237 296.519 C 213.716 292.075,216.073 288.974,218.583 280.273 C 219.680 276.467,219.809 275.403,220.083 267.871 C 220.299 261.957,220.266 261.934,217.812 266.311 M174.432 287.287 C 176.139 288.994,175.432 293.334,173.355 293.890 C 169.455 294.935,167.358 290.996,170.163 287.892 C 171.820 286.057,173.031 285.886,174.432 287.287 M191.229 287.287 C 192.647 288.705,192.565 291.089,191.046 292.608 C 187.931 295.722,184.330 291.560,186.751 287.644 C 187.791 285.960,189.746 285.804,191.229 287.287 " stroke="none" fill="#24313d" fill-rule="evenodd"></path><path id="path2" d="M130.371 100.292 C 134.292 100.356,140.708 100.356,144.629 100.292 C 148.550 100.229,145.342 100.177,137.500 100.177 C 129.658 100.177,126.450 100.229,130.371 100.292 M176.679 100.291 C 178.570 100.363,181.558 100.363,183.320 100.290 C 185.082 100.218,183.535 100.159,179.883 100.160 C 176.230 100.160,174.789 100.219,176.679 100.291 M254.199 120.595 C 254.897 120.682,256.040 120.682,256.738 120.595 C 257.437 120.508,256.865 120.438,255.469 120.438 C 254.072 120.438,253.501 120.508,254.199 120.595 M270.996 120.602 C 272.339 120.678,274.536 120.678,275.879 120.602 C 277.222 120.525,276.123 120.463,273.438 120.463 C 270.752 120.463,269.653 120.525,270.996 120.602 M282.715 120.599 C 283.628 120.681,285.122 120.681,286.035 120.599 C 286.948 120.516,286.201 120.449,284.375 120.449 C 282.549 120.449,281.802 120.516,282.715 120.599 M85.312 131.836 C 85.313 135.059,85.374 136.325,85.447 134.650 C 85.520 132.975,85.520 130.339,85.446 128.791 C 85.372 127.243,85.312 128.613,85.312 131.836 M201.688 132.031 C 201.688 133.428,201.758 133.999,201.845 133.301 C 201.932 132.603,201.932 131.460,201.845 130.762 C 201.758 130.063,201.688 130.635,201.688 132.031 M294.337 136.327 C 293.717 137.330,295.098 138.866,296.682 138.934 C 297.540 138.971,297.891 138.909,297.461 138.796 C 296.327 138.499,295.313 137.489,295.313 136.658 C 295.313 135.885,294.732 135.688,294.337 136.327 M272.089 137.926 C 272.432 138.590,272.618 139.381,272.501 139.684 C 272.379 140.003,272.531 140.234,272.864 140.234 C 273.624 140.234,273.604 138.693,272.829 137.587 C 271.920 136.289,271.372 136.540,272.089 137.926 M201.729 155.273 C 201.729 160.000,201.786 161.880,201.854 159.451 C 201.923 157.022,201.923 153.155,201.854 150.857 C 201.785 148.560,201.729 150.547,201.729 155.273 M85.315 184.375 C 85.315 187.920,85.374 189.370,85.447 187.598 C 85.519 185.825,85.519 182.925,85.447 181.152 C 85.374 179.380,85.315 180.830,85.315 184.375 M122.559 186.230 C 125.620 186.296,130.630 186.296,133.691 186.230 C 136.753 186.164,134.248 186.110,128.125 186.110 C 122.002 186.110,119.497 186.164,122.559 186.230 M145.987 186.219 C 146.681 186.306,147.911 186.307,148.722 186.223 C 149.532 186.138,148.965 186.067,147.461 186.066 C 145.957 186.064,145.294 186.133,145.987 186.219 M159.277 186.224 C 160.190 186.306,161.685 186.306,162.598 186.224 C 163.511 186.141,162.764 186.074,160.938 186.074 C 159.111 186.074,158.364 186.141,159.277 186.224 M175.098 186.225 C 176.118 186.305,177.788 186.305,178.809 186.225 C 179.829 186.144,178.994 186.078,176.953 186.078 C 174.912 186.078,174.077 186.144,175.098 186.225 M188.184 199.494 C 188.667 199.588,189.458 199.588,189.941 199.494 C 190.425 199.401,190.029 199.325,189.063 199.325 C 188.096 199.325,187.700 199.401,188.184 199.494 M105.559 203.906 C 105.559 204.658,105.640 204.966,105.738 204.590 C 105.836 204.214,105.836 203.599,105.738 203.223 C 105.640 202.847,105.559 203.154,105.559 203.906 M121.966 205.078 C 121.966 205.830,122.046 206.138,122.144 205.762 C 122.243 205.386,122.243 204.771,122.144 204.395 C 122.046 204.019,121.966 204.326,121.966 205.078 M190.332 210.816 C 190.708 210.914,191.323 210.914,191.699 210.816 C 192.075 210.718,191.768 210.638,191.016 210.638 C 190.264 210.638,189.956 210.718,190.332 210.816 M140.137 217.861 C 140.835 217.947,141.978 217.947,142.676 217.861 C 143.374 217.774,142.803 217.703,141.406 217.703 C 140.010 217.703,139.438 217.774,140.137 217.861 M164.737 228.798 C 165.431 228.884,166.661 228.885,167.472 228.801 C 168.282 228.716,167.715 228.646,166.211 228.644 C 164.707 228.642,164.044 228.711,164.737 228.798 M218.450 244.141 C 218.450 244.893,218.530 245.200,218.629 244.824 C 218.727 244.448,218.727 243.833,218.629 243.457 C 218.530 243.081,218.450 243.389,218.450 244.141 M295.794 245.313 C 295.794 246.064,295.874 246.372,295.972 245.996 C 296.071 245.620,296.071 245.005,295.972 244.629 C 295.874 244.253,295.794 244.561,295.794 245.313 M300.872 248.438 C 300.872 249.189,300.952 249.497,301.051 249.121 C 301.149 248.745,301.149 248.130,301.051 247.754 C 300.952 247.378,300.872 247.686,300.872 248.438 M171.981 252.734 C 171.981 253.701,172.058 254.097,172.151 253.613 C 172.244 253.130,172.244 252.339,172.151 251.855 C 172.058 251.372,171.981 251.768,171.981 252.734 M252.120 264.844 C 252.120 269.678,252.176 271.655,252.245 269.238 C 252.313 266.821,252.313 262.866,252.245 260.449 C 252.176 258.032,252.120 260.010,252.120 264.844 M160.454 259.261 C 160.940 259.354,161.643 259.351,162.016 259.253 C 162.390 259.155,161.992 259.079,161.133 259.083 C 160.273 259.087,159.968 259.167,160.454 259.261 M257.182 270.313 C 257.182 272.998,257.244 274.097,257.320 272.754 C 257.397 271.411,257.397 269.214,257.320 267.871 C 257.244 266.528,257.182 267.627,257.182 270.313 M213.260 272.168 L 211.914 273.633 213.379 272.287 C 214.185 271.546,214.844 270.887,214.844 270.822 C 214.844 270.524,214.513 270.805,213.260 272.168 M169.434 275.276 C 169.917 275.369,170.708 275.369,171.191 275.276 C 171.675 275.183,171.279 275.106,170.313 275.106 C 169.346 275.106,168.950 275.183,169.434 275.276 M177.246 275.276 C 177.729 275.369,178.521 275.369,179.004 275.276 C 179.487 275.183,179.092 275.106,178.125 275.106 C 177.158 275.106,176.763 275.183,177.246 275.276 M125.293 275.666 C 125.776 275.759,126.567 275.759,127.051 275.666 C 127.534 275.573,127.139 275.497,126.172 275.497 C 125.205 275.497,124.810 275.573,125.293 275.666 M137.207 275.660 C 137.583 275.758,138.198 275.758,138.574 275.660 C 138.950 275.562,138.643 275.481,137.891 275.481 C 137.139 275.481,136.831 275.562,137.207 275.660 M147.954 275.667 C 148.440 275.760,149.143 275.757,149.516 275.659 C 149.890 275.561,149.492 275.485,148.633 275.489 C 147.773 275.493,147.468 275.573,147.954 275.667 M154.199 275.673 C 154.897 275.760,156.040 275.760,156.738 275.673 C 157.437 275.587,156.865 275.516,155.469 275.516 C 154.072 275.516,153.501 275.587,154.199 275.673 M189.746 275.666 C 190.229 275.759,191.021 275.759,191.504 275.666 C 191.987 275.573,191.592 275.497,190.625 275.497 C 189.658 275.497,189.263 275.573,189.746 275.666 M267.677 277.148 C 267.681 278.008,267.761 278.313,267.854 277.827 C 267.948 277.342,267.944 276.638,267.847 276.265 C 267.749 275.892,267.672 276.289,267.677 277.148 M295.794 287.891 C 295.794 288.643,295.874 288.950,295.972 288.574 C 296.071 288.198,296.071 287.583,295.972 287.207 C 295.874 286.831,295.794 287.139,295.794 287.891 M307.513 291.797 C 307.513 292.549,307.593 292.856,307.691 292.480 C 307.789 292.104,307.789 291.489,307.691 291.113 C 307.593 290.737,307.513 291.045,307.513 291.797 M131.543 300.291 C 133.530 300.362,136.782 300.362,138.770 300.291 C 140.757 300.220,139.131 300.162,135.156 300.162 C 131.182 300.162,129.556 300.220,131.543 300.291 " stroke="none" fill="#858c8c" fill-rule="evenodd"></path><path id="path3" d="M112.409 85.830 C 113.111 85.917,114.166 85.915,114.753 85.826 C 115.340 85.737,114.766 85.666,113.477 85.668 C 112.188 85.670,111.707 85.743,112.409 85.830 M130.766 85.823 C 131.252 85.917,131.955 85.913,132.329 85.815 C 132.702 85.717,132.305 85.641,131.445 85.645 C 130.586 85.650,130.280 85.730,130.766 85.823 M135.063 85.823 C 135.549 85.917,136.252 85.913,136.626 85.815 C 136.999 85.717,136.602 85.641,135.742 85.645 C 134.883 85.650,134.577 85.730,135.063 85.823 M210.921 94.238 C 211.879 95.259,212.714 96.094,212.777 96.094 C 213.070 96.094,212.760 95.743,211.035 94.124 L 209.180 92.383 210.921 94.238 M153.027 100.286 C 153.940 100.368,155.435 100.368,156.348 100.286 C 157.261 100.204,156.514 100.136,154.688 100.136 C 152.861 100.136,152.114 100.204,153.027 100.286 M187.012 100.276 C 187.495 100.369,188.286 100.369,188.770 100.276 C 189.253 100.183,188.857 100.106,187.891 100.106 C 186.924 100.106,186.528 100.183,187.012 100.276 M197.266 102.857 C 197.266 102.924,197.837 103.495,198.535 104.126 L 199.805 105.273 198.657 104.004 C 197.588 102.821,197.266 102.555,197.266 102.857 M218.504 114.844 C 218.504 117.100,218.568 118.022,218.647 116.895 C 218.726 115.767,218.726 113.921,218.647 112.793 C 218.568 111.665,218.504 112.588,218.504 114.844 M150.177 121.582 L 148.633 123.242 150.293 121.698 C 151.837 120.262,152.133 119.922,151.837 119.922 C 151.773 119.922,151.026 120.669,150.177 121.582 M201.713 125.000 C 201.713 127.686,201.775 128.784,201.852 127.441 C 201.928 126.099,201.928 123.901,201.852 122.559 C 201.775 121.216,201.713 122.314,201.713 125.000 M250.684 120.588 C 251.167 120.681,251.958 120.681,252.441 120.588 C 252.925 120.495,252.529 120.419,251.563 120.419 C 250.596 120.419,250.200 120.495,250.684 120.588 M260.449 120.603 C 262.007 120.677,264.556 120.677,266.113 120.603 C 267.671 120.528,266.396 120.468,263.281 120.468 C 260.166 120.468,258.892 120.528,260.449 120.603 M278.809 120.588 C 279.292 120.681,280.083 120.681,280.566 120.588 C 281.050 120.495,280.654 120.419,279.688 120.419 C 278.721 120.419,278.325 120.495,278.809 120.588 M290.332 120.603 C 291.997 120.676,294.722 120.676,296.387 120.603 C 298.052 120.530,296.689 120.470,293.359 120.470 C 290.029 120.470,288.667 120.530,290.332 120.603 M309.863 120.582 C 310.239 120.680,310.854 120.680,311.230 120.582 C 311.606 120.484,311.299 120.403,310.547 120.403 C 309.795 120.403,309.487 120.484,309.863 120.582 M315.723 120.592 C 316.313 120.682,317.280 120.682,317.871 120.592 C 318.462 120.503,317.979 120.430,316.797 120.430 C 315.615 120.430,315.132 120.503,315.723 120.592 M254.199 136.220 C 254.897 136.307,256.040 136.307,256.738 136.220 C 257.437 136.133,256.865 136.063,255.469 136.063 C 254.072 136.063,253.501 136.133,254.199 136.220 M265.137 136.213 C 265.620 136.306,266.411 136.306,266.895 136.213 C 267.378 136.120,266.982 136.044,266.016 136.044 C 265.049 136.044,264.653 136.120,265.137 136.213 M293.066 136.196 C 292.399 136.465,292.453 137.538,293.186 138.585 C 293.753 139.395,294.062 139.448,297.776 139.380 L 301.758 139.308 298.447 139.087 C 295.045 138.861,293.743 138.020,294.328 136.426 C 294.508 135.933,293.965 135.834,293.066 136.196 M271.382 136.599 C 272.452 136.808,273.438 138.136,273.438 139.368 C 273.438 140.181,273.594 140.268,274.867 140.160 C 277.947 139.899,275.920 136.898,272.461 136.598 C 271.387 136.504,270.901 136.505,271.382 136.599 M85.338 157.813 C 85.338 169.092,85.388 173.706,85.449 168.066 C 85.510 162.427,85.510 153.198,85.449 147.559 C 85.388 141.919,85.338 146.533,85.338 157.813 M122.052 142.285 L 120.508 143.945 122.168 142.401 C 123.712 140.965,124.008 140.625,123.712 140.625 C 123.648 140.625,122.901 141.372,122.052 142.285 M264.599 155.664 C 264.600 158.027,264.664 158.944,264.742 157.701 C 264.820 156.457,264.819 154.524,264.741 153.404 C 264.662 152.284,264.598 153.301,264.599 155.664 M114.746 186.213 C 115.229 186.306,116.021 186.306,116.504 186.213 C 116.987 186.120,116.592 186.044,115.625 186.044 C 114.658 186.044,114.263 186.120,114.746 186.213 M137.012 199.501 C 137.710 199.588,138.853 199.588,139.551 199.501 C 140.249 199.415,139.678 199.344,138.281 199.344 C 136.885 199.344,136.313 199.415,137.012 199.501 M171.987 205.273 C 171.990 206.348,172.066 206.741,172.155 206.147 C 172.245 205.553,172.243 204.674,172.150 204.194 C 172.057 203.713,171.984 204.199,171.987 205.273 M115.128 210.438 C 115.821 210.524,117.052 210.526,117.862 210.441 C 118.673 210.357,118.105 210.286,116.602 210.284 C 115.098 210.283,114.435 210.352,115.128 210.438 M136.612 210.829 C 137.306 210.915,138.536 210.917,139.347 210.832 C 140.157 210.747,139.590 210.677,138.086 210.675 C 136.582 210.673,135.919 210.743,136.612 210.829 M192.876 210.823 C 193.362 210.917,194.065 210.913,194.438 210.815 C 194.812 210.717,194.414 210.641,193.555 210.645 C 192.695 210.650,192.390 210.730,192.876 210.823 M273.443 216.309 C 273.436 217.380,275.371 217.525,276.953 216.571 L 277.930 215.983 276.953 216.262 C 275.591 216.652,274.125 216.493,273.758 215.916 C 273.554 215.594,273.447 215.727,273.443 216.309 M111.621 217.854 C 112.104 217.947,112.896 217.947,113.379 217.854 C 113.862 217.761,113.467 217.685,112.500 217.685 C 111.533 217.685,111.138 217.761,111.621 217.854 M116.309 217.854 C 116.792 217.947,117.583 217.947,118.066 217.854 C 118.550 217.761,118.154 217.685,117.188 217.685 C 116.221 217.685,115.825 217.761,116.309 217.854 M190.923 218.245 C 191.408 218.338,192.112 218.335,192.485 218.237 C 192.858 218.139,192.461 218.063,191.602 218.067 C 190.742 218.072,190.437 218.152,190.923 218.245 M272.408 219.226 C 272.304 219.394,272.943 219.531,273.828 219.531 C 274.813 219.531,275.342 219.378,275.193 219.136 C 274.916 218.689,272.696 218.760,272.408 219.226 M141.895 228.785 C 142.271 228.883,142.886 228.883,143.262 228.785 C 143.638 228.687,143.330 228.606,142.578 228.606 C 141.826 228.606,141.519 228.687,141.895 228.785 M109.473 235.436 C 110.063 235.526,111.030 235.526,111.621 235.436 C 112.212 235.347,111.729 235.273,110.547 235.273 C 109.365 235.273,108.882 235.347,109.473 235.436 M163.972 235.439 C 164.674 235.526,165.729 235.524,166.316 235.435 C 166.903 235.346,166.328 235.275,165.039 235.277 C 163.750 235.279,163.270 235.352,163.972 235.439 M218.491 240.234 C 218.491 241.846,218.560 242.505,218.644 241.699 C 218.728 240.894,218.728 239.575,218.644 238.770 C 218.560 237.964,218.491 238.623,218.491 240.234 M273.927 242.383 C 273.931 243.242,274.011 243.548,274.104 243.062 C 274.198 242.576,274.194 241.873,274.097 241.499 C 273.999 241.126,273.922 241.523,273.927 242.383 M295.802 242.773 C 295.806 243.633,295.886 243.938,295.979 243.452 C 296.073 242.967,296.069 242.263,295.972 241.890 C 295.874 241.517,295.797 241.914,295.802 242.773 M279.031 244.141 C 279.031 245.537,279.102 246.108,279.189 245.410 C 279.275 244.712,279.275 243.569,279.189 242.871 C 279.102 242.173,279.031 242.744,279.031 244.141 M289.578 244.531 C 289.578 245.928,289.649 246.499,289.736 245.801 C 289.822 245.103,289.822 243.960,289.736 243.262 C 289.649 242.563,289.578 243.135,289.578 244.531 M85.668 245.898 C 85.670 247.187,85.743 247.668,85.830 246.966 C 85.917 246.264,85.915 245.209,85.826 244.622 C 85.737 244.035,85.666 244.609,85.668 245.898 M252.052 245.898 C 252.056 246.758,252.136 247.063,252.229 246.577 C 252.323 246.092,252.319 245.388,252.222 245.015 C 252.124 244.642,252.047 245.039,252.052 245.898 M295.815 248.242 C 295.818 249.316,295.894 249.709,295.983 249.116 C 296.073 248.522,296.071 247.643,295.978 247.163 C 295.885 246.682,295.812 247.168,295.815 248.242 M189.551 247.941 C 190.356 248.025,191.675 248.025,192.480 247.941 C 193.286 247.857,192.627 247.788,191.016 247.788 C 189.404 247.788,188.745 247.857,189.551 247.941 M191.309 259.260 C 191.792 259.353,192.583 259.353,193.066 259.260 C 193.550 259.167,193.154 259.091,192.188 259.091 C 191.221 259.091,190.825 259.167,191.309 259.260 M307.200 270.313 C 307.200 275.576,307.255 277.729,307.323 275.098 C 307.391 272.466,307.391 268.159,307.323 265.527 C 307.255 262.896,307.200 265.049,307.200 270.313 M279.428 269.141 C 279.428 270.752,279.497 271.411,279.581 270.605 C 279.666 269.800,279.666 268.481,279.581 267.676 C 279.497 266.870,279.428 267.529,279.428 269.141 M164.551 275.285 C 165.356 275.369,166.675 275.369,167.480 275.285 C 168.286 275.200,167.627 275.131,166.016 275.131 C 164.404 275.131,163.745 275.200,164.551 275.285 M181.152 275.286 C 182.065 275.368,183.560 275.368,184.473 275.286 C 185.386 275.204,184.639 275.136,182.813 275.136 C 180.986 275.136,180.239 275.204,181.152 275.286 M121.582 275.670 C 122.173 275.760,123.140 275.760,123.730 275.670 C 124.321 275.581,123.838 275.508,122.656 275.508 C 121.475 275.508,120.991 275.581,121.582 275.670 M150.684 275.666 C 151.167 275.759,151.958 275.759,152.441 275.666 C 152.925 275.573,152.529 275.497,151.563 275.497 C 150.596 275.497,150.200 275.573,150.684 275.666 M295.854 282.031 C 295.854 284.717,295.916 285.815,295.992 284.473 C 296.069 283.130,296.069 280.933,295.992 279.590 C 295.916 278.247,295.854 279.346,295.854 282.031 M160.645 282.301 C 161.021 282.399,161.636 282.399,162.012 282.301 C 162.388 282.202,162.080 282.122,161.328 282.122 C 160.576 282.122,160.269 282.202,160.645 282.301 M215.607 286.362 C 215.367 286.810,215.273 287.278,215.398 287.403 C 215.523 287.528,215.625 287.415,215.625 287.151 C 215.625 286.888,215.763 286.758,215.932 286.862 C 216.101 286.967,216.239 286.713,216.239 286.299 C 216.239 285.346,216.146 285.355,215.607 286.362 M295.794 291.797 C 295.794 292.549,295.874 292.856,295.972 292.480 C 296.071 292.104,296.071 291.489,295.972 291.113 C 295.874 290.737,295.794 291.045,295.794 291.797 M109.863 300.269 C 110.239 300.368,110.854 300.368,111.230 300.269 C 111.606 300.171,111.299 300.091,110.547 300.091 C 109.795 300.091,109.487 300.171,109.863 300.269 M124.512 300.283 C 125.210 300.369,126.353 300.369,127.051 300.283 C 127.749 300.196,127.178 300.125,125.781 300.125 C 124.385 300.125,123.813 300.196,124.512 300.283 M152.056 300.280 C 152.650 300.370,153.529 300.368,154.009 300.275 C 154.490 300.182,154.004 300.109,152.930 300.112 C 151.855 300.115,151.462 300.191,152.056 300.280 M170.222 300.674 C 170.924 300.761,171.979 300.759,172.566 300.670 C 173.153 300.581,172.578 300.509,171.289 300.512 C 170.000 300.514,169.520 300.587,170.222 300.674 " stroke="none" fill="#6c6c6c" fill-rule="evenodd"></path><path id="path4" d="M188.770 85.441 C 189.575 85.525,190.894 85.525,191.699 85.441 C 192.505 85.357,191.846 85.288,190.234 85.288 C 188.623 85.288,187.964 85.357,188.770 85.441 M251.252 96.383 C 252.693 96.458,255.154 96.458,256.721 96.384 C 258.288 96.310,257.109 96.248,254.102 96.248 C 251.094 96.247,249.812 96.308,251.252 96.383 M116.895 100.289 C 118.130 100.366,120.151 100.366,121.387 100.289 C 122.622 100.211,121.611 100.148,119.141 100.148 C 116.670 100.148,115.659 100.211,116.895 100.289 M162.793 100.291 C 164.780 100.362,168.032 100.362,170.020 100.291 C 172.007 100.220,170.381 100.162,166.406 100.162 C 162.432 100.162,160.806 100.220,162.793 100.291 M85.322 118.164 C 85.322 122.676,85.379 124.468,85.448 122.147 C 85.517 119.825,85.517 116.134,85.447 113.944 C 85.378 111.753,85.321 113.652,85.322 118.164 M102.138 138.672 C 102.138 153.604,102.187 159.712,102.246 152.246 C 102.305 144.780,102.305 132.563,102.246 125.098 C 102.187 117.632,102.138 123.740,102.138 138.672 M201.722 140.625 C 201.722 144.170,201.781 145.620,201.853 143.848 C 201.926 142.075,201.926 139.175,201.853 137.402 C 201.781 135.630,201.722 137.080,201.722 140.625 M303.223 134.644 C 303.599 134.743,304.214 134.743,304.590 134.644 C 304.966 134.546,304.658 134.466,303.906 134.466 C 303.154 134.466,302.847 134.546,303.223 134.644 M299.023 135.036 C 295.859 135.764,295.313 136.005,295.313 136.673 C 295.313 138.142,296.636 138.721,300.825 139.085 C 305.024 139.449,306.374 139.346,303.343 138.891 C 302.369 138.745,301.319 138.372,301.009 138.063 C 300.700 137.753,300.258 137.500,300.028 137.500 C 299.294 137.500,299.538 135.232,300.293 135.035 C 301.209 134.795,300.065 134.796,299.023 135.036 M260.059 136.213 C 260.542 136.306,261.333 136.306,261.816 136.213 C 262.300 136.120,261.904 136.044,260.938 136.044 C 259.971 136.044,259.575 136.120,260.059 136.213 M270.023 136.976 C 269.656 137.125,269.679 137.313,270.121 137.755 C 270.441 138.075,270.703 138.764,270.703 139.286 C 270.703 139.979,270.917 140.234,271.497 140.234 C 272.599 140.234,272.826 139.352,272.089 137.926 C 271.486 136.760,271.051 136.561,270.023 136.976 M130.259 143.457 L 128.320 145.508 130.371 143.569 C 131.499 142.503,132.422 141.580,132.422 141.519 C 132.422 141.227,132.060 141.551,130.259 143.457 M201.691 166.211 C 201.692 167.715,201.763 168.282,201.848 167.472 C 201.932 166.661,201.931 165.431,201.844 164.737 C 201.758 164.044,201.689 164.707,201.691 166.211 M218.875 166.797 C 218.875 168.193,218.946 168.765,219.033 168.066 C 219.119 167.368,219.119 166.226,219.033 165.527 C 218.946 164.829,218.875 165.400,218.875 166.797 M102.044 173.047 C 102.044 173.799,102.124 174.106,102.222 173.730 C 102.321 173.354,102.321 172.739,102.222 172.363 C 102.124 171.987,102.044 172.295,102.044 173.047 M140.538 186.224 C 141.456 186.307,142.863 186.305,143.663 186.221 C 144.463 186.138,143.711 186.070,141.992 186.071 C 140.273 186.073,139.619 186.142,140.538 186.224 M151.855 186.225 C 152.983 186.304,154.829 186.304,155.957 186.225 C 157.085 186.147,156.162 186.082,153.906 186.082 C 151.650 186.082,150.728 186.147,151.855 186.225 M166.309 186.227 C 167.651 186.303,169.849 186.303,171.191 186.227 C 172.534 186.150,171.436 186.088,168.750 186.088 C 166.064 186.088,164.966 186.150,166.309 186.227 M181.934 186.224 C 182.847 186.306,184.341 186.306,185.254 186.224 C 186.167 186.141,185.420 186.074,183.594 186.074 C 181.768 186.074,181.021 186.141,181.934 186.224 M218.918 198.633 C 218.919 203.789,218.974 205.844,219.042 203.200 C 219.110 200.556,219.109 196.337,219.042 193.825 C 218.974 191.313,218.918 193.477,218.918 198.633 M85.340 214.844 C 85.340 228.271,85.389 233.765,85.449 227.051 C 85.509 220.337,85.509 209.351,85.449 202.637 C 85.389 195.923,85.340 201.416,85.340 214.844 M289.161 193.945 C 289.165 194.805,289.245 195.110,289.339 194.624 C 289.432 194.138,289.429 193.435,289.331 193.062 C 289.233 192.688,289.157 193.086,289.161 193.945 M197.763 204.688 C 197.763 205.654,197.839 206.050,197.932 205.566 C 198.025 205.083,198.025 204.292,197.932 203.809 C 197.839 203.325,197.763 203.721,197.763 204.688 M165.137 210.829 C 165.835 210.916,166.978 210.916,167.676 210.829 C 168.374 210.743,167.803 210.672,166.406 210.672 C 165.010 210.672,164.438 210.743,165.137 210.829 M297.266 215.039 C 296.370 215.384,296.168 215.571,296.680 215.581 C 297.109 215.590,297.900 215.346,298.438 215.039 C 299.655 214.343,299.073 214.343,297.266 215.039 M273.828 215.531 C 273.828 216.101,276.022 216.441,277.046 216.030 C 277.874 215.697,277.856 215.673,276.758 215.644 C 276.113 215.628,275.190 215.508,274.707 215.379 C 274.224 215.249,273.828 215.318,273.828 215.531 M135.449 217.861 C 136.147 217.947,137.290 217.947,137.988 217.861 C 138.687 217.774,138.115 217.703,136.719 217.703 C 135.322 217.703,134.751 217.774,135.449 217.861 M162.598 218.256 C 163.618 218.336,165.288 218.336,166.309 218.256 C 167.329 218.175,166.494 218.110,164.453 218.110 C 162.412 218.110,161.577 218.175,162.598 218.256 M187.016 218.245 C 187.502 218.338,188.205 218.335,188.579 218.237 C 188.952 218.139,188.555 218.063,187.695 218.067 C 186.836 218.072,186.530 218.152,187.016 218.245 M272.759 219.812 C 273.353 219.901,274.232 219.899,274.712 219.806 C 275.193 219.714,274.707 219.640,273.633 219.643 C 272.559 219.646,272.166 219.722,272.759 219.812 M115.519 228.407 C 116.212 228.493,117.443 228.495,118.253 228.410 C 119.063 228.326,118.496 228.255,116.992 228.253 C 115.488 228.251,114.825 228.321,115.519 228.407 M115.128 244.032 C 115.821 244.118,117.052 244.120,117.862 244.035 C 118.673 243.951,118.105 243.880,116.602 243.878 C 115.098 243.876,114.435 243.946,115.128 244.032 M285.263 245.313 C 285.263 246.279,285.339 246.675,285.432 246.191 C 285.525 245.708,285.525 244.917,285.432 244.434 C 285.339 243.950,285.263 244.346,285.263 245.313 M218.466 246.875 C 218.466 247.842,218.542 248.237,218.635 247.754 C 218.728 247.271,218.728 246.479,218.635 245.996 C 218.542 245.513,218.466 245.908,218.466 246.875 M267.723 249.219 C 267.723 251.475,267.787 252.397,267.866 251.270 C 267.945 250.142,267.945 248.296,267.866 247.168 C 267.787 246.040,267.723 246.963,267.723 249.219 M279.031 250.781 C 279.031 252.178,279.102 252.749,279.189 252.051 C 279.275 251.353,279.275 250.210,279.189 249.512 C 279.102 248.813,279.031 249.385,279.031 250.781 M252.094 252.734 C 252.094 254.775,252.160 255.610,252.240 254.590 C 252.321 253.569,252.321 251.899,252.240 250.879 C 252.160 249.858,252.094 250.693,252.094 252.734 M300.937 255.273 C 300.938 258.496,300.999 259.762,301.072 258.088 C 301.145 256.413,301.145 253.776,301.071 252.228 C 300.997 250.680,300.937 252.051,300.937 255.273 M198.549 252.930 C 198.552 254.004,198.628 254.397,198.718 253.803 C 198.808 253.209,198.805 252.331,198.712 251.850 C 198.620 251.370,198.546 251.855,198.549 252.930 M121.992 253.516 C 121.992 254.697,122.065 255.181,122.155 254.590 C 122.244 253.999,122.244 253.032,122.155 252.441 C 122.065 251.851,121.992 252.334,121.992 253.516 M257.188 259.766 C 257.188 263.096,257.248 264.458,257.322 262.793 C 257.395 261.128,257.395 258.403,257.322 256.738 C 257.248 255.073,257.188 256.436,257.188 259.766 M267.749 265.234 C 267.749 271.143,267.804 273.560,267.870 270.605 C 267.937 267.651,267.937 262.817,267.870 259.863 C 267.804 256.909,267.749 259.326,267.749 265.234 M285.293 257.813 C 285.293 259.639,285.360 260.386,285.442 259.473 C 285.525 258.560,285.525 257.065,285.442 256.152 C 285.360 255.239,285.293 255.986,285.293 257.813 M113.384 259.265 C 113.978 259.354,114.857 259.352,115.337 259.259 C 115.818 259.167,115.332 259.093,114.258 259.096 C 113.184 259.099,112.791 259.175,113.384 259.265 M83.732 268.555 C 83.731 270.488,83.797 271.329,83.879 270.422 C 83.961 269.515,83.962 267.933,83.881 266.906 C 83.801 265.879,83.734 266.621,83.732 268.555 M220.013 271.094 C 220.013 271.846,220.093 272.153,220.191 271.777 C 220.289 271.401,220.289 270.786,220.191 270.410 C 220.093 270.034,220.013 270.342,220.013 271.094 M263.022 273.047 C 263.022 274.658,263.091 275.317,263.175 274.512 C 263.259 273.706,263.259 272.388,263.175 271.582 C 263.091 270.776,263.022 271.436,263.022 273.047 M252.113 279.883 C 252.113 283.535,252.171 285.082,252.243 283.320 C 252.316 281.558,252.316 278.570,252.244 276.679 C 252.172 274.789,252.113 276.230,252.113 279.883 M172.949 275.283 C 173.647 275.369,174.790 275.369,175.488 275.283 C 176.187 275.196,175.615 275.125,174.219 275.125 C 172.822 275.125,172.251 275.196,172.949 275.283 M257.138 276.563 C 257.138 277.529,257.214 277.925,257.307 277.441 C 257.400 276.958,257.400 276.167,257.307 275.684 C 257.214 275.200,257.138 275.596,257.138 276.563 M129.996 275.680 C 131.347 275.757,133.456 275.756,134.683 275.679 C 135.910 275.602,134.805 275.539,132.227 275.540 C 129.648 275.541,128.645 275.604,129.996 275.680 M144.634 275.671 C 145.228 275.761,146.107 275.758,146.587 275.666 C 147.068 275.573,146.582 275.499,145.508 275.502 C 144.434 275.505,144.041 275.581,144.634 275.671 M111.035 276.061 C 111.626 276.151,112.593 276.151,113.184 276.061 C 113.774 275.972,113.291 275.898,112.109 275.898 C 110.928 275.898,110.444 275.972,111.035 276.061 M300.888 278.125 C 300.888 279.092,300.964 279.487,301.057 279.004 C 301.150 278.521,301.150 277.729,301.057 277.246 C 300.964 276.763,300.888 277.158,300.888 278.125 M267.715 281.641 C 267.715 283.467,267.782 284.214,267.864 283.301 C 267.946 282.388,267.946 280.894,267.864 279.980 C 267.782 279.067,267.715 279.814,267.715 281.641 M188.188 281.526 C 188.674 281.620,189.377 281.616,189.751 281.518 C 190.124 281.421,189.727 281.344,188.867 281.349 C 188.008 281.353,187.702 281.433,188.188 281.526 M117.871 282.323 C 120.073 282.392,123.677 282.392,125.879 282.323 C 128.081 282.253,126.279 282.196,121.875 282.196 C 117.471 282.196,115.669 282.253,117.871 282.323 M153.223 282.318 C 154.243 282.399,155.913 282.399,156.934 282.318 C 157.954 282.238,157.119 282.172,155.078 282.172 C 153.037 282.172,152.202 282.238,153.223 282.318 M263.019 285.352 C 263.021 286.855,263.091 287.423,263.176 286.612 C 263.260 285.802,263.259 284.571,263.173 283.878 C 263.086 283.185,263.017 283.848,263.019 285.352 M245.840 287.500 C 245.840 289.326,245.907 290.073,245.989 289.160 C 246.071 288.247,246.071 286.753,245.989 285.840 C 245.907 284.927,245.840 285.674,245.840 287.500 M289.552 290.039 C 289.556 290.898,289.636 291.204,289.729 290.718 C 289.823 290.232,289.819 289.529,289.722 289.156 C 289.624 288.782,289.547 289.180,289.552 290.039 M279.013 290.625 C 279.013 291.592,279.089 291.987,279.182 291.504 C 279.275 291.021,279.275 290.229,279.182 289.746 C 279.089 289.263,279.013 289.658,279.013 290.625 M143.848 300.287 C 144.868 300.368,146.538 300.368,147.559 300.287 C 148.579 300.207,147.744 300.141,145.703 300.141 C 143.662 300.141,142.827 300.207,143.848 300.287 M164.947 300.671 C 165.541 300.761,166.419 300.758,166.900 300.666 C 167.380 300.573,166.895 300.499,165.820 300.502 C 164.746 300.505,164.353 300.581,164.947 300.671 " stroke="none" fill="#a6a49e" fill-rule="evenodd"></path></g></svg>