<svg width="24" height="24" viewBox="0 0 24 24" fill="none" xmlns="http://www.w3.org/2000/svg">
<path d="M15.2156 10.428C17.0019 10.363 18.4198 8.90201 18.4313 7.11457C18.4037 5.3659 16.9643 3.97033 15.2156 3.99671" stroke="#393946" stroke-width="1.5" stroke-linecap="round" stroke-linejoin="round"/>
<path fill-rule="evenodd" clip-rule="evenodd" d="M9.4275 10.428C11.2138 10.363 12.6317 8.90202 12.6431 7.11457C12.6155 5.36589 11.1762 3.97033 9.4275 3.99671C7.6788 3.97033 6.23949 5.3659 6.21188 7.11457C6.22289 8.9022 7.64101 10.3634 9.4275 10.428V10.428Z" stroke="#393946" stroke-width="1.5" stroke-linecap="round" stroke-linejoin="round"/>
<path d="M16.0017 20.0035V18.0026C16.0017 15.7926 14.2101 14.001 12 14.001H6.99791C4.78785 14.001 2.99625 15.7926 2.99625 18.0026V20.0035" stroke="#393946" stroke-width="1.5" stroke-linecap="round" stroke-linejoin="round"/>
<path d="M21.0038 20.0035V17.0022C21.0038 15.3447 19.66 14.001 18.0025 14.001" stroke="#393946" stroke-width="1.5" stroke-linecap="round" stroke-linejoin="round"/>
</svg>
